<svg width="890" height="460" viewBox="0 0 890 460" fill="none" xmlns="http://www.w3.org/2000/svg">
<g clip-path="url(#clip0_16_5660)">
<path d="M444.538 410.603C690.049 410.603 889.076 405.036 889.076 398.168C889.076 391.301 690.049 385.734 444.538 385.734C199.026 385.734 0 391.301 0 398.168C0 405.036 199.026 410.603 444.538 410.603Z" fill="#E6E6E6"/>
<path d="M681.445 263.431C680.884 263.439 680.323 263.447 679.754 263.447C679.185 263.447 678.623 263.439 678.062 263.431C648.305 262.755 626.736 244.162 632.226 224.655L645.613 177.066L648.997 165.024L708.973 166.047L712.618 177.827L726.966 224.193C733.04 243.808 711.472 262.755 681.445 263.431Z" fill="#3F3D56"/>
<path opacity="0.2" d="M712.617 177.827C702.391 183.673 690.79 186.684 679.012 186.55C667.234 186.416 655.704 183.142 645.613 177.066L648.997 165.024L708.973 166.047L712.617 177.827Z" fill="black"/>
<path d="M710.086 226.233C712.677 216.577 721.192 202.648 745.073 185.854C786.72 156.559 761.876 134.594 760.799 133.674C758.541 131.744 758.874 129.576 761.575 128.835C763.143 128.522 764.761 128.547 766.319 128.91C767.877 129.273 769.34 129.964 770.609 130.938C771.957 132.054 803.068 158.621 756.072 191.672C713.777 221.422 722.769 240.842 722.873 241.028C724.006 243.105 722.189 244.767 718.81 244.744C715.431 244.722 711.77 243.022 710.633 240.947C710.394 240.508 707.673 235.223 710.086 226.233Z" fill="#3F3D56"/>
<path d="M652.072 270.367C651.163 270.367 650.263 270.188 649.423 269.84C648.584 269.493 647.821 268.983 647.178 268.34C646.536 267.698 646.026 266.935 645.678 266.095C645.33 265.255 645.151 264.356 645.151 263.447V233.459C645.151 231.623 645.88 229.863 647.178 228.565C648.476 227.267 650.236 226.538 652.072 226.538C653.907 226.538 655.667 227.267 656.965 228.565C658.263 229.863 658.992 231.623 658.992 233.459V263.447C658.992 264.356 658.813 265.255 658.465 266.095C658.117 266.935 657.608 267.698 656.965 268.34C656.323 268.983 655.56 269.493 654.72 269.84C653.88 270.188 652.981 270.367 652.072 270.367Z" fill="#3F3D56"/>
<path d="M658.14 199.174C657.76 200 657.221 200.742 656.554 201.36C655.887 201.977 655.105 202.457 654.253 202.772C653.401 203.088 652.495 203.232 651.586 203.197C650.678 203.162 649.786 202.948 648.96 202.568L621.717 190.034C620.052 189.266 618.76 187.868 618.125 186.147C617.489 184.427 617.563 182.524 618.33 180.858C619.096 179.192 620.493 177.898 622.213 177.261C623.933 176.624 625.835 176.696 627.502 177.46L654.745 189.995C655.571 190.374 656.314 190.913 656.931 191.58C657.549 192.247 658.029 193.029 658.344 193.881C658.659 194.734 658.803 195.64 658.768 196.548C658.733 197.456 658.52 198.348 658.14 199.174Z" fill="#3F3D56"/>
<path d="M701.367 199.174C701.747 199.999 702.286 200.742 702.952 201.36C703.619 201.977 704.401 202.457 705.254 202.772C706.106 203.087 707.012 203.232 707.92 203.197C708.828 203.162 709.721 202.948 710.546 202.568L737.789 190.034C739.457 189.267 740.751 187.869 741.388 186.147C742.024 184.426 741.951 182.522 741.184 180.855C740.416 179.187 739.018 177.893 737.297 177.256C735.575 176.62 733.672 176.693 732.004 177.46L704.761 189.995C703.936 190.374 703.193 190.913 702.576 191.58C701.958 192.247 701.478 193.029 701.163 193.881C700.848 194.734 700.704 195.64 700.739 196.548C700.774 197.456 700.987 198.348 701.367 199.174Z" fill="#3F3D56"/>
<path d="M707.435 270.367C708.344 270.367 709.244 270.188 710.083 269.84C710.923 269.493 711.686 268.983 712.328 268.34C712.971 267.698 713.481 266.935 713.829 266.095C714.176 265.255 714.355 264.356 714.355 263.447V233.459C714.355 231.623 713.626 229.863 712.328 228.565C711.031 227.267 709.27 226.538 707.435 226.538C705.6 226.538 703.839 227.267 702.542 228.565C701.244 229.863 700.515 231.623 700.515 233.459V263.447C700.515 264.356 700.694 265.255 701.041 266.095C701.389 266.935 701.899 267.698 702.542 268.34C703.184 268.983 703.947 269.493 704.787 269.84C705.626 270.188 706.526 270.367 707.435 270.367Z" fill="#3F3D56"/>
<path d="M736.355 76.2247C736.953 75.4715 737.385 74.6 737.622 73.6677C737.859 72.7355 737.895 71.7637 737.729 70.8163L733.962 48.6593L730.196 26.5023C729.993 25.306 729.478 24.1842 728.704 23.2499C727.929 22.3155 726.923 21.6014 725.785 21.1794C724.647 20.7573 723.419 20.6422 722.222 20.8456C721.026 21.0489 719.904 21.5636 718.97 22.3379L701.665 36.6782L691.239 45.3177C684.286 44.0813 677.179 43.9741 670.192 45.0003L660.149 36.6782L642.843 22.3379C641.909 21.5636 640.787 21.0489 639.591 20.8456C638.395 20.6422 637.166 20.7574 636.028 21.1794C634.89 21.6014 633.884 22.3155 633.109 23.2499C632.335 24.1843 631.821 25.306 631.617 26.5023L627.851 48.6593L624.084 70.8163C623.883 71.9808 623.987 73.1776 624.386 74.29C617.931 84.1851 614.246 95.629 613.713 107.431C613.18 119.233 615.819 130.963 621.356 141.399C626.893 151.836 635.125 160.598 645.195 166.775C655.266 172.952 666.808 176.317 678.621 176.521C690.433 176.725 702.085 173.76 712.363 167.935C722.641 162.11 731.171 153.638 737.065 143.399C742.959 133.16 746.002 121.528 745.877 109.715C745.752 97.9012 742.464 86.3369 736.355 76.2247Z" fill="#3F3D56"/>
<path d="M641.109 31.4175C640.699 31.4181 640.292 31.4919 639.908 31.6356C639.342 31.8414 638.842 32.194 638.458 32.6571C638.074 33.1203 637.82 33.6773 637.723 34.2709L633.156 61.1405C633.055 61.7328 633.112 62.3412 633.321 62.9044C633.53 63.4677 633.884 63.9661 634.346 64.3494C634.809 64.7327 635.364 64.9875 635.957 65.0882C636.549 65.1888 637.157 65.1318 637.721 64.9228L663.274 55.4434C663.837 55.2344 664.335 54.8809 664.719 54.4184C665.102 53.9559 665.357 53.4006 665.457 52.8084C665.558 52.2162 665.501 51.6079 665.292 51.0447C665.083 50.4815 664.73 49.9832 664.267 49.5999L664.267 49.5991L643.281 32.2093C642.672 31.6992 641.904 31.419 641.109 31.4175Z" fill="#E6E6E6"/>
<path d="M720.704 31.4175C719.91 31.419 719.141 31.6992 718.532 32.2093L697.546 49.5999C697.084 49.9832 696.73 50.4815 696.521 51.0447C696.312 51.6079 696.255 52.2162 696.356 52.8084C696.457 53.4006 696.711 53.9559 697.095 54.4184C697.478 54.8809 697.976 55.2344 698.54 55.4434L724.093 64.9228C724.656 65.1318 725.264 65.1888 725.857 65.0882C726.449 64.9875 727.004 64.7327 727.467 64.3494C727.93 63.9661 728.283 63.4677 728.492 62.9044C728.701 62.3412 728.758 61.7328 728.657 61.1405L724.09 34.2709C723.993 33.6773 723.739 33.1203 723.355 32.6571C722.971 32.194 722.471 31.8414 721.906 31.6356C721.521 31.4919 721.114 31.4181 720.704 31.4175Z" fill="#E6E6E6"/>
<path d="M679.753 128.885C684.849 128.885 688.981 124.754 688.981 119.658C688.981 114.562 684.849 110.431 679.753 110.431C674.657 110.431 670.526 114.562 670.526 119.658C670.526 124.754 674.657 128.885 679.753 128.885Z" fill="#E6E6E6"/>
<path d="M679.753 117.351C683.15 117.351 685.904 116.318 685.904 115.044C685.904 113.77 683.15 112.737 679.753 112.737C676.356 112.737 673.602 113.77 673.602 115.044C673.602 116.318 676.356 117.351 679.753 117.351Z" fill="#3F3D56"/>
<path d="M675.14 125.04H683.598V135.421C683.598 135.976 683.488 136.526 683.276 137.039C683.063 137.552 682.752 138.018 682.359 138.411C681.966 138.804 681.5 139.115 680.987 139.328C680.474 139.54 679.924 139.65 679.369 139.65C678.247 139.65 677.171 139.204 676.378 138.411C675.585 137.618 675.14 136.542 675.14 135.421V125.04H675.14Z" fill="#FF6584"/>
<path d="M680.267 20.3796C679.823 21.2994 679.393 22.2291 678.988 23.1778C674.216 34.307 672.606 46.5369 674.337 58.5217C675.202 57.2656 676.112 55.957 677.038 54.6339C675.056 43.1316 676.17 31.309 680.267 20.3796Z" fill="#3F3D56"/>
<path d="M687.188 28.8376C686.744 29.7574 686.313 30.6871 685.908 31.6358C681.136 42.765 679.527 54.9949 681.258 66.9797C682.123 65.7237 683.033 64.415 683.959 63.092C681.977 51.5896 683.091 39.767 687.188 28.8376Z" fill="#3F3D56"/>
<path d="M708.523 194.889L707.549 182.491L706.574 170.093C706.521 169.423 706.293 168.779 705.913 168.226C705.532 167.673 705.013 167.229 704.407 166.94C703.801 166.651 703.13 166.526 702.46 166.579C701.791 166.632 701.147 166.86 700.594 167.24L690.344 174.283L682.859 179.426C682.381 178.866 681.787 178.417 681.118 178.108C680.449 177.8 679.721 177.64 678.985 177.64C678.248 177.64 677.521 177.8 676.852 178.108C676.183 178.417 675.589 178.866 675.11 179.426L667.626 174.283L657.376 167.24C656.823 166.859 656.179 166.632 655.51 166.579C654.84 166.526 654.169 166.651 653.563 166.94C652.957 167.229 652.437 167.673 652.057 168.226C651.677 168.779 651.449 169.423 651.396 170.093L650.421 182.491L649.446 194.889C649.394 195.558 649.518 196.23 649.807 196.836C650.096 197.442 650.54 197.961 651.093 198.341C651.647 198.722 652.291 198.949 652.96 199.002C653.629 199.055 654.301 198.93 654.907 198.641L666.131 193.286L675.354 188.887C675.829 189.367 676.394 189.749 677.017 190.01C677.64 190.27 678.309 190.405 678.985 190.405C679.66 190.405 680.329 190.27 680.953 190.01C681.576 189.749 682.141 189.367 682.616 188.887L691.838 193.286L703.063 198.641C703.669 198.93 704.34 199.055 705.01 199.002C705.679 198.95 706.323 198.722 706.876 198.341C707.43 197.961 707.873 197.442 708.162 196.836C708.452 196.23 708.576 195.558 708.523 194.889Z" fill="#0072FF"/>
<path d="M667.45 111.969C668.724 111.969 669.757 110.936 669.757 109.662C669.757 108.388 668.724 107.355 667.45 107.355C666.176 107.355 665.144 108.388 665.144 109.662C665.144 110.936 666.176 111.969 667.45 111.969Z" fill="#E6E6E6"/>
<path d="M692.056 111.969C693.33 111.969 694.363 110.936 694.363 109.662C694.363 108.388 693.33 107.355 692.056 107.355C690.782 107.355 689.749 108.388 689.749 109.662C689.749 110.936 690.782 111.969 692.056 111.969Z" fill="#E6E6E6"/>
<path d="M233.426 243.052C233.987 243.059 234.548 243.067 235.117 243.067C235.686 243.067 236.247 243.059 236.809 243.052C266.566 242.375 288.135 223.783 282.644 204.275L269.257 156.686L265.874 144.645L205.898 145.667L202.253 157.447L187.905 203.814C181.831 223.429 203.399 242.375 233.426 243.052Z" fill="#3F3D56"/>
<path opacity="0.2" d="M202.253 157.447C212.479 163.293 224.08 166.304 235.858 166.17C247.637 166.037 259.166 162.763 269.257 156.686L265.874 144.645L205.898 145.667L202.253 157.447Z" fill="black"/>
<path d="M197.499 200.213C191.026 192.595 177.369 183.649 148.599 178.688C98.4217 170.032 111.478 139.548 112.057 138.256C113.273 135.545 112.044 133.728 109.286 134.214C107.734 134.602 106.283 135.317 105.03 136.312C103.777 137.306 102.751 138.557 102.021 139.981C101.279 141.566 84.5285 178.891 141.148 188.653C192.105 197.444 192.287 218.844 192.273 219.056C192.137 221.419 194.491 222.143 197.536 220.677C200.58 219.211 203.161 216.108 203.301 213.746C203.329 213.247 203.527 207.305 197.499 200.213Z" fill="#3F3D56"/>
<path d="M262.798 249.987C263.707 249.987 264.607 249.808 265.447 249.461C266.286 249.113 267.049 248.603 267.692 247.961C268.334 247.318 268.844 246.555 269.192 245.715C269.54 244.876 269.719 243.976 269.719 243.067V213.079C269.716 211.245 268.986 209.487 267.689 208.191C266.391 206.895 264.632 206.167 262.798 206.167C260.964 206.167 259.205 206.895 257.908 208.191C256.61 209.487 255.88 211.245 255.878 213.079V243.067C255.878 243.976 256.057 244.876 256.405 245.715C256.752 246.555 257.262 247.318 257.905 247.961C258.547 248.603 259.31 249.113 260.15 249.461C260.99 249.808 261.889 249.987 262.798 249.987Z" fill="#3F3D56"/>
<path d="M256.73 178.794C257.11 179.62 257.649 180.363 258.316 180.98C258.983 181.598 259.765 182.078 260.617 182.393C261.469 182.708 262.375 182.852 263.284 182.817C264.192 182.782 265.084 182.569 265.91 182.189L293.153 169.655C293.979 169.275 294.723 168.737 295.341 168.07C295.96 167.403 296.44 166.621 296.756 165.768C297.072 164.915 297.217 164.009 297.182 163.1C297.147 162.191 296.934 161.298 296.554 160.472C296.173 159.646 295.634 158.903 294.967 158.285C294.299 157.668 293.517 157.188 292.663 156.873C291.81 156.558 290.903 156.414 289.995 156.45C289.086 156.485 288.193 156.7 287.368 157.081L260.125 169.615C259.299 169.995 258.556 170.534 257.939 171.201C257.321 171.867 256.841 172.649 256.526 173.502C256.211 174.354 256.067 175.26 256.102 176.168C256.137 177.076 256.35 177.969 256.73 178.794Z" fill="#3F3D56"/>
<path d="M213.504 178.794C213.124 179.62 212.585 180.363 211.918 180.98C211.251 181.598 210.469 182.078 209.617 182.393C208.765 182.708 207.859 182.852 206.95 182.817C206.042 182.782 205.15 182.569 204.324 182.189L177.081 169.655C176.255 169.275 175.511 168.737 174.893 168.07C174.274 167.403 173.794 166.621 173.478 165.768C173.162 164.915 173.017 164.009 173.052 163.1C173.087 162.191 173.3 161.298 173.68 160.472C174.06 159.646 174.6 158.903 175.267 158.285C175.935 157.668 176.717 157.188 177.57 156.873C178.424 156.558 179.33 156.414 180.239 156.45C181.148 156.485 182.041 156.7 182.866 157.081L210.109 169.615C210.935 169.995 211.678 170.534 212.295 171.201C212.913 171.867 213.393 172.649 213.708 173.502C214.023 174.354 214.167 175.26 214.132 176.168C214.097 177.076 213.884 177.969 213.504 178.794Z" fill="#3F3D56"/>
<path d="M207.436 249.987C206.527 249.987 205.627 249.808 204.788 249.461C203.948 249.113 203.185 248.603 202.542 247.961C201.9 247.318 201.39 246.555 201.042 245.715C200.695 244.876 200.516 243.976 200.516 243.067V213.079C200.518 211.245 201.248 209.487 202.545 208.191C203.843 206.895 205.602 206.167 207.436 206.167C209.27 206.167 211.029 206.895 212.326 208.191C213.624 209.487 214.354 211.245 214.356 213.079V243.067C214.356 243.976 214.177 244.876 213.83 245.715C213.482 246.555 212.972 247.318 212.329 247.961C211.687 248.603 210.924 249.113 210.084 249.461C209.245 249.808 208.345 249.987 207.436 249.987Z" fill="#3F3D56"/>
<path d="M290.484 53.9104C290.883 52.798 290.987 51.6012 290.786 50.4367L287.019 28.2797L283.253 6.1227C283.05 4.92638 282.535 3.80465 281.761 2.87029C280.986 1.93592 279.98 1.22184 278.842 0.799793C277.704 0.377745 276.475 0.262602 275.279 0.465961C274.083 0.669319 272.961 1.18401 272.027 1.95829L254.721 16.2986L244.679 24.6207C237.691 23.5945 230.584 23.7017 223.631 24.9381L213.206 16.2985L195.9 1.95826C194.966 1.18398 193.844 0.66929 192.648 0.46593C191.451 0.26257 190.223 0.377699 189.085 0.799747C187.947 1.22179 186.941 1.93589 186.166 2.87026C185.392 3.80463 184.877 4.92634 184.674 6.12267L180.908 28.2797L177.141 50.4367C176.975 51.3841 177.011 52.3559 177.248 53.2881C177.485 54.2204 177.917 55.0918 178.515 55.8451C172.398 65.9596 169.104 77.5286 168.975 89.3481C168.846 101.168 171.887 112.806 177.781 123.051C183.676 133.297 192.209 141.776 202.491 147.605C212.774 153.434 224.432 156.401 236.25 156.197C248.069 155.993 259.616 152.625 269.692 146.444C279.767 140.263 288.002 131.494 293.539 121.051C299.076 110.608 301.713 98.8719 301.176 87.0639C300.639 75.2559 296.947 63.8076 290.484 53.9104H290.484Z" fill="#3F3D56"/>
<path d="M271.59 11.8299L250.604 29.2197L250.604 29.2205C250.141 29.6038 249.788 30.1021 249.579 30.6653C249.37 31.2285 249.313 31.8368 249.414 32.429C249.514 33.0212 249.769 33.5765 250.152 34.039C250.536 34.5016 251.034 34.855 251.597 35.064L277.15 44.5434C277.714 44.7524 278.322 44.8094 278.914 44.7087C279.507 44.6081 280.062 44.3533 280.525 43.97C280.987 43.5866 281.341 43.0883 281.55 42.525C281.759 41.9617 281.816 41.3534 281.715 40.7611L277.148 13.8915C277.05 13.2979 276.797 12.7409 276.413 12.2777C276.029 11.8146 275.529 11.462 274.963 11.2562C274.579 11.1125 274.172 11.0387 273.762 11.0381C272.967 11.0396 272.199 11.3198 271.59 11.8299Z" fill="#E6E6E6"/>
<path d="M192.964 11.2562C192.399 11.462 191.899 11.8146 191.515 12.2777C191.131 12.7409 190.877 13.2979 190.78 13.8915L186.212 40.7611C186.112 41.3534 186.169 41.9617 186.378 42.525C186.587 43.0883 186.94 43.5866 187.403 43.97C187.866 44.3533 188.421 44.6081 189.013 44.7087C189.606 44.8094 190.214 44.7524 190.777 44.5434L216.33 35.064C216.894 34.855 217.392 34.5015 217.775 34.039C218.158 33.5765 218.413 33.0212 218.514 32.429C218.615 31.8368 218.558 31.2285 218.349 30.6653C218.14 30.1021 217.786 29.6038 217.324 29.2205L196.338 11.8299C195.729 11.3198 194.96 11.0396 194.166 11.0381C193.756 11.0387 193.349 11.1125 192.964 11.2562Z" fill="#E6E6E6"/>
<path d="M235.117 108.505C240.213 108.505 244.344 104.374 244.344 99.2781C244.344 94.1821 240.213 90.051 235.117 90.051C230.021 90.051 225.89 94.1821 225.89 99.2781C225.89 104.374 230.021 108.505 235.117 108.505Z" fill="#E6E6E6"/>
<path d="M235.117 96.9715C238.515 96.9715 241.269 95.9387 241.269 94.6647C241.269 93.3907 238.515 92.3579 235.117 92.3579C231.72 92.3579 228.966 93.3907 228.966 94.6647C228.966 95.9387 231.72 96.9715 235.117 96.9715Z" fill="#3F3D56"/>
<path d="M235.501 119.27C234.946 119.27 234.396 119.161 233.883 118.948C233.37 118.736 232.904 118.424 232.511 118.032C232.118 117.639 231.807 117.173 231.594 116.66C231.382 116.146 231.272 115.597 231.272 115.041V104.661H239.73V115.041C239.73 115.597 239.621 116.146 239.409 116.66C239.196 117.173 238.885 117.639 238.492 118.032C238.099 118.424 237.633 118.736 237.12 118.948C236.607 119.161 236.057 119.27 235.501 119.27Z" fill="#FF6584"/>
<path d="M234.604 0C235.047 0.91976 235.478 1.84947 235.883 2.79819C240.655 13.9273 242.264 26.1572 240.533 38.142C239.668 36.8859 238.758 35.5773 237.832 34.2543C239.814 22.7519 238.7 10.9294 234.604 0Z" fill="#3F3D56"/>
<path d="M227.684 8.45825C228.127 9.37802 228.558 10.3077 228.963 11.2564C233.735 22.3856 235.344 34.6155 233.614 46.6003C232.748 45.3442 231.838 44.0356 230.913 42.7125C232.895 31.2102 231.78 19.3876 227.684 8.45825Z" fill="#3F3D56"/>
<path d="M206.348 39.9473L207.323 27.5493L208.297 15.1512C208.35 14.4818 208.578 13.838 208.958 13.2846C209.339 12.7312 209.858 12.2876 210.464 11.9985C211.07 11.7094 211.741 11.5849 212.411 11.6375C213.08 11.6902 213.724 11.9181 214.277 12.2984L224.527 19.3417L232.012 24.485C232.49 23.9249 233.084 23.4752 233.753 23.1668C234.422 22.8584 235.15 22.6988 235.886 22.6988C236.623 22.6988 237.351 22.8584 238.019 23.1668C238.688 23.4752 239.282 23.9249 239.761 24.485L247.245 19.3417L257.495 12.2984C258.048 11.9181 258.692 11.6902 259.362 11.6375C260.031 11.5849 260.703 11.7094 261.309 11.9985C261.915 12.2876 262.434 12.7312 262.814 13.2846C263.194 13.838 263.422 14.4818 263.475 15.1512L264.45 27.5493L265.425 39.9473C265.477 40.6167 265.353 41.2882 265.064 41.8943C264.775 42.5003 264.331 43.0196 263.778 43.3999C263.224 43.7801 262.581 44.0081 261.911 44.0607C261.242 44.1133 260.57 43.9888 259.964 43.6997L248.74 38.345L239.517 33.9452C239.042 34.426 238.477 34.8078 237.854 35.0684C237.231 35.329 236.562 35.4632 235.886 35.4632C235.211 35.4632 234.542 35.329 233.919 35.0684C233.295 34.8078 232.73 34.426 232.255 33.9452L223.033 38.345L211.808 43.6998C211.202 43.9889 210.531 44.1134 209.861 44.0608C209.192 44.0081 208.548 43.7802 207.995 43.3999C207.441 43.0196 206.998 42.5003 206.709 41.8943C206.42 41.2882 206.295 40.6168 206.348 39.9473Z" fill="#0072FF"/>
<path d="M245.113 89.2822C245.113 90.5562 246.146 89.2822 247.42 89.2822C248.694 89.2822 249.727 90.5562 249.727 89.2822C249.726 88.6712 249.482 88.0857 249.049 87.6541C248.617 87.2226 248.031 86.9802 247.42 86.9802C246.809 86.9802 246.223 87.2226 245.791 87.6541C245.358 88.0857 245.115 88.6712 245.113 89.2822Z" fill="#E6E6E6"/>
<path d="M225.121 89.2822C225.121 90.5562 224.089 89.2822 222.815 89.2822C221.541 89.2822 220.508 90.5562 220.508 89.2822C220.509 88.6712 220.753 88.0857 221.185 87.6541C221.618 87.2226 222.204 86.9802 222.815 86.9802C223.426 86.9802 224.012 87.2226 224.444 87.6541C224.876 88.0857 225.12 88.6712 225.121 89.2822Z" fill="#E6E6E6"/>
<path d="M481.05 263.451V248.788H407.736V249.705V263.451V381.67V396.333H422.399H481.05V381.67H422.399V263.451H481.05Z" fill="#3F3D56"/>
<path d="M516.791 248.788V396.333H590.105V248.788H516.791ZM575.442 381.67H531.454V263.451H575.442V381.67Z" fill="#0072FF"/>
<path d="M313.344 381.67V249.705H298.681V381.67V396.333H313.344H371.995V381.67H313.344Z" fill="#0072FF"/>
<path d="M265.69 263.451V248.788H192.376V249.705V263.451V314.771V329.434V381.67V396.333H207.039H265.69V381.67H207.039V329.434H265.69V314.771H207.039V263.451H265.69Z" fill="#3F3D56"/>
<path d="M839.372 263.451V248.788H766.058V249.705V263.451V314.771V329.434V381.67V396.333H780.721H839.372V381.67H780.721V329.434H839.372V314.771H780.721V263.451H839.372Z" fill="#0072FF"/>
<path d="M142.889 249.705V370.89L104.228 332.23L104.14 332.319L104.058 332.237L64.5351 371.76V249.247H49.8721V395.875H64.5351V392.496L104.147 352.884L142.889 391.627V396.333H157.552V249.705H142.889Z" fill="#3F3D56"/>
<path d="M717.488 249.705V253.083L677.876 292.695L639.133 253.953V249.247H624.47V395.875H639.133V274.689L677.794 313.35L677.883 313.261L677.964 313.342L717.488 273.819V396.333H732.15V249.705H717.488Z" fill="#3F3D56"/>
<path d="M335.075 159.379C340.046 159.379 344.075 155.35 344.075 150.379C344.075 145.409 340.046 141.379 335.075 141.379C330.105 141.379 326.075 145.409 326.075 150.379C326.075 155.35 330.105 159.379 335.075 159.379Z" fill="#0072FF"/>
<path d="M113.075 259.38C118.046 259.38 122.075 255.35 122.075 250.38C122.075 245.409 118.046 241.38 113.075 241.38C108.105 241.38 104.075 245.409 104.075 250.38C104.075 255.35 108.105 259.38 113.075 259.38Z" fill="#0072FF"/>
<path d="M291.075 459.38C296.046 459.38 300.075 455.35 300.075 450.38C300.075 445.409 296.046 441.38 291.075 441.38C286.105 441.38 282.075 445.409 282.075 450.38C282.075 455.35 286.105 459.38 291.075 459.38Z" fill="#0072FF"/>
<path d="M517.075 186.379C522.046 186.379 526.075 182.35 526.075 177.379C526.075 172.409 522.046 168.379 517.075 168.379C512.105 168.379 508.075 172.409 508.075 177.379C508.075 182.35 512.105 186.379 517.075 186.379Z" fill="#0072FF"/>
<path d="M782.075 451.38C787.046 451.38 791.075 447.35 791.075 442.38C791.075 437.409 787.046 433.38 782.075 433.38C777.105 433.38 773.075 437.409 773.075 442.38C773.075 447.35 777.105 451.38 782.075 451.38Z" fill="#0072FF"/>
<path d="M791.075 215.38C796.046 215.38 800.075 211.35 800.075 206.38C800.075 201.409 796.046 197.38 791.075 197.38C786.105 197.38 782.075 201.409 782.075 206.38C782.075 211.35 786.105 215.38 791.075 215.38Z" fill="#0072FF"/>
<path d="M677.075 377.38C682.046 377.38 686.075 373.35 686.075 368.38C686.075 363.409 682.046 359.38 677.075 359.38C672.105 359.38 668.075 363.409 668.075 368.38C668.075 373.35 672.105 377.38 677.075 377.38Z" fill="#0072FF"/>
</g>
<defs>
<clipPath id="clip0_16_5660">
<rect width="889.076" height="459.38" fill="white"/>
</clipPath>
</defs>
</svg>
