<svg width="145" height="36" viewBox="0 0 145 36" fill="none" xmlns="http://www.w3.org/2000/svg">
<path d="M20.6641 0.875H25.1641V23.9609C25.1641 26.5234 24.5938 28.6562 23.4531 30.3594C22.3125 32.0625 20.7969 33.3438 18.9062 34.2031C17.0312 35.0469 14.9922 35.4688 12.7891 35.4688C10.4766 35.4688 8.38281 35.0469 6.50781 34.2031C4.64844 33.3438 3.17188 32.0625 2.07812 30.3594C1 28.6562 0.460938 26.5234 0.460938 23.9609V0.875H4.9375V23.9609C4.9375 25.7422 5.26562 27.2109 5.92188 28.3672C6.57812 29.5234 7.49219 30.3828 8.66406 30.9453C9.85156 31.5078 11.2266 31.7891 12.7891 31.7891C14.3672 31.7891 15.7422 31.5078 16.9141 30.9453C18.1016 30.3828 19.0234 29.5234 19.6797 28.3672C20.3359 27.2109 20.6641 25.7422 20.6641 23.9609V0.875ZM83.0781 0.875V35H78.625V0.875H83.0781ZM94.0469 0.875V4.57812H67.6797V0.875H94.0469Z" fill="#1B57B0"/>
<path d="M35.9453 15.0547V35H31.6094V9.64062H35.7109L35.9453 15.0547ZM34.9141 21.3594L33.1094 21.2891C33.125 19.5547 33.3828 17.9531 33.8828 16.4844C34.3828 15 35.0859 13.7109 35.9922 12.6172C36.8984 11.5234 37.9766 10.6797 39.2266 10.0859C40.4922 9.47656 41.8906 9.17188 43.4219 9.17188C44.6719 9.17188 45.7969 9.34375 46.7969 9.6875C47.7969 10.0156 48.6484 10.5469 49.3516 11.2812C50.0703 12.0156 50.6172 12.9688 50.9922 14.1406C51.3672 15.2969 51.5547 16.7109 51.5547 18.3828V35H47.1953V18.3359C47.1953 17.0078 47 15.9453 46.6094 15.1484C46.2188 14.3359 45.6484 13.75 44.8984 13.3906C44.1484 13.0156 43.2266 12.8281 42.1328 12.8281C41.0547 12.8281 40.0703 13.0547 39.1797 13.5078C38.3047 13.9609 37.5469 14.5859 36.9062 15.3828C36.2812 16.1797 35.7891 17.0938 35.4297 18.125C35.0859 19.1406 34.9141 20.2188 34.9141 21.3594ZM62.8516 9.64062V35H58.4922V9.64062H62.8516ZM58.1641 2.91406C58.1641 2.21094 58.375 1.61719 58.7969 1.13281C59.2344 0.648437 59.875 0.40625 60.7188 0.40625C61.5469 0.40625 62.1797 0.648437 62.6172 1.13281C63.0703 1.61719 63.2969 2.21094 63.2969 2.91406C63.2969 3.58594 63.0703 4.16406 62.6172 4.64844C62.1797 5.11719 61.5469 5.35156 60.7188 5.35156C59.875 5.35156 59.2344 5.11719 58.7969 4.64844C58.375 4.16406 58.1641 3.58594 58.1641 2.91406ZM97.3047 22.6016V22.0625C97.3047 20.2344 97.5703 18.5391 98.1016 16.9766C98.6328 15.3984 99.3984 14.0312 100.398 12.875C101.398 11.7031 102.609 10.7969 104.031 10.1562C105.453 9.5 107.047 9.17188 108.812 9.17188C110.594 9.17188 112.195 9.5 113.617 10.1562C115.055 10.7969 116.273 11.7031 117.273 12.875C118.289 14.0312 119.062 15.3984 119.594 16.9766C120.125 18.5391 120.391 20.2344 120.391 22.0625V22.6016C120.391 24.4297 120.125 26.125 119.594 27.6875C119.062 29.25 118.289 30.6172 117.273 31.7891C116.273 32.9453 115.062 33.8516 113.641 34.5078C112.234 35.1484 110.641 35.4688 108.859 35.4688C107.078 35.4688 105.477 35.1484 104.055 34.5078C102.633 33.8516 101.414 32.9453 100.398 31.7891C99.3984 30.6172 98.6328 29.25 98.1016 27.6875C97.5703 26.125 97.3047 24.4297 97.3047 22.6016ZM101.641 22.0625V22.6016C101.641 23.8672 101.789 25.0625 102.086 26.1875C102.383 27.2969 102.828 28.2812 103.422 29.1406C104.031 30 104.789 30.6797 105.695 31.1797C106.602 31.6641 107.656 31.9062 108.859 31.9062C110.047 31.9062 111.086 31.6641 111.977 31.1797C112.883 30.6797 113.633 30 114.227 29.1406C114.82 28.2812 115.266 27.2969 115.562 26.1875C115.875 25.0625 116.031 23.8672 116.031 22.6016V22.0625C116.031 20.8125 115.875 19.6328 115.562 18.5234C115.266 17.3984 114.812 16.4062 114.203 15.5469C113.609 14.6719 112.859 13.9844 111.953 13.4844C111.062 12.9844 110.016 12.7344 108.812 12.7344C107.625 12.7344 106.578 12.9844 105.672 13.4844C104.781 13.9844 104.031 14.6719 103.422 15.5469C102.828 16.4062 102.383 17.3984 102.086 18.5234C101.789 19.6328 101.641 20.8125 101.641 22.0625ZM128.242 9.64062L133.797 18.875L139.422 9.64062H144.508L136.211 22.1562L144.766 35H139.75L133.891 25.4844L128.031 35H122.992L131.523 22.1562L123.25 9.64062H128.242Z" fill="black"/>
</svg>
