<svg width="220" height="90" viewBox="0 0 239 49" fill="none" xmlns="http://www.w3.org/2000/svg">
<path d="M43.3281 44H36.2031L36.25 40.3203H43.3281C45.7656 40.3203 47.7969 39.8125 49.4219 38.7969C51.0469 37.7656 52.2656 36.3281 53.0781 34.4844C53.9062 32.625 54.3203 30.4531 54.3203 27.9688V25.8828C54.3203 23.9297 54.0859 22.1953 53.6172 20.6797C53.1484 19.1484 52.4609 17.8594 51.5547 16.8125C50.6484 15.75 49.5391 14.9453 48.2266 14.3984C46.9297 13.8516 45.4375 13.5781 43.75 13.5781H36.0625V9.875H43.75C45.9844 9.875 48.0234 10.25 49.8672 11C51.7109 11.7344 53.2969 12.8047 54.625 14.2109C55.9688 15.6016 57 17.2891 57.7188 19.2734C58.4375 21.2422 58.7969 23.4609 58.7969 25.9297V27.9688C58.7969 30.4375 58.4375 32.6641 57.7188 34.6484C57 36.6172 55.9609 38.2969 54.6016 39.6875C53.2578 41.0781 51.6328 42.1484 49.7266 42.8984C47.8359 43.6328 45.7031 44 43.3281 44ZM38.6172 9.875V44H34.0938V9.875H38.6172ZM146.125 9.875V44H141.672V9.875H146.125ZM157.094 9.875V13.5781H130.727V9.875H157.094Z" fill="#1B57B0"/>
<path d="M79.8906 39.6641V26.6094C79.8906 25.6094 79.6875 24.7422 79.2812 24.0078C78.8906 23.2578 78.2969 22.6797 77.5 22.2734C76.7031 21.8672 75.7188 21.6641 74.5469 21.6641C73.4531 21.6641 72.4922 21.8516 71.6641 22.2266C70.8516 22.6016 70.2109 23.0938 69.7422 23.7031C69.2891 24.3125 69.0625 24.9688 69.0625 25.6719H64.7266C64.7266 24.7656 64.9609 23.8672 65.4297 22.9766C65.8984 22.0859 66.5703 21.2812 67.4453 20.5625C68.3359 19.8281 69.3984 19.25 70.6328 18.8281C71.8828 18.3906 73.2734 18.1719 74.8047 18.1719C76.6484 18.1719 78.2734 18.4844 79.6797 19.1094C81.1016 19.7344 82.2109 20.6797 83.0078 21.9453C83.8203 23.1953 84.2266 24.7656 84.2266 26.6562V38.4688C84.2266 39.3125 84.2969 40.2109 84.4375 41.1641C84.5938 42.1172 84.8203 42.9375 85.1172 43.625V44H80.5938C80.375 43.5 80.2031 42.8359 80.0781 42.0078C79.9531 41.1641 79.8906 40.3828 79.8906 39.6641ZM80.6406 28.625L80.6875 31.6719H76.3047C75.0703 31.6719 73.9688 31.7734 73 31.9766C72.0312 32.1641 71.2188 32.4531 70.5625 32.8438C69.9062 33.2344 69.4062 33.7266 69.0625 34.3203C68.7188 34.8984 68.5469 35.5781 68.5469 36.3594C68.5469 37.1562 68.7266 37.8828 69.0859 38.5391C69.4453 39.1953 69.9844 39.7188 70.7031 40.1094C71.4375 40.4844 72.3359 40.6719 73.3984 40.6719C74.7266 40.6719 75.8984 40.3906 76.9141 39.8281C77.9297 39.2656 78.7344 38.5781 79.3281 37.7656C79.9375 36.9531 80.2656 36.1641 80.3125 35.3984L82.1641 37.4844C82.0547 38.1406 81.7578 38.8672 81.2734 39.6641C80.7891 40.4609 80.1406 41.2266 79.3281 41.9609C78.5312 42.6797 77.5781 43.2812 76.4688 43.7656C75.375 44.2344 74.1406 44.4688 72.7656 44.4688C71.0469 44.4688 69.5391 44.1328 68.2422 43.4609C66.9609 42.7891 65.9609 41.8906 65.2422 40.7656C64.5391 39.625 64.1875 38.3516 64.1875 36.9453C64.1875 35.5859 64.4531 34.3906 64.9844 33.3594C65.5156 32.3125 66.2812 31.4453 67.2812 30.7578C68.2812 30.0547 69.4844 29.5234 70.8906 29.1641C72.2969 28.8047 73.8672 28.625 75.6016 28.625H80.6406ZM101.664 18.6406V21.9688H87.9531V18.6406H101.664ZM92.5938 12.4766H96.9297V37.7188C96.9297 38.5781 97.0625 39.2266 97.3281 39.6641C97.5938 40.1016 97.9375 40.3906 98.3594 40.5312C98.7812 40.6719 99.2344 40.7422 99.7188 40.7422C100.078 40.7422 100.453 40.7109 100.844 40.6484C101.25 40.5703 101.555 40.5078 101.758 40.4609L101.781 44C101.438 44.1094 100.984 44.2109 100.422 44.3047C99.875 44.4141 99.2109 44.4688 98.4297 44.4688C97.3672 44.4688 96.3906 44.2578 95.5 43.8359C94.6094 43.4141 93.8984 42.7109 93.3672 41.7266C92.8516 40.7266 92.5938 39.3828 92.5938 37.6953V12.4766ZM121.703 39.6641V26.6094C121.703 25.6094 121.5 24.7422 121.094 24.0078C120.703 23.2578 120.109 22.6797 119.312 22.2734C118.516 21.8672 117.531 21.6641 116.359 21.6641C115.266 21.6641 114.305 21.8516 113.477 22.2266C112.664 22.6016 112.023 23.0938 111.555 23.7031C111.102 24.3125 110.875 24.9688 110.875 25.6719H106.539C106.539 24.7656 106.773 23.8672 107.242 22.9766C107.711 22.0859 108.383 21.2812 109.258 20.5625C110.148 19.8281 111.211 19.25 112.445 18.8281C113.695 18.3906 115.086 18.1719 116.617 18.1719C118.461 18.1719 120.086 18.4844 121.492 19.1094C122.914 19.7344 124.023 20.6797 124.82 21.9453C125.633 23.1953 126.039 24.7656 126.039 26.6562V38.4688C126.039 39.3125 126.109 40.2109 126.25 41.1641C126.406 42.1172 126.633 42.9375 126.93 43.625V44H122.406C122.188 43.5 122.016 42.8359 121.891 42.0078C121.766 41.1641 121.703 40.3828 121.703 39.6641ZM122.453 28.625L122.5 31.6719H118.117C116.883 31.6719 115.781 31.7734 114.812 31.9766C113.844 32.1641 113.031 32.4531 112.375 32.8438C111.719 33.2344 111.219 33.7266 110.875 34.3203C110.531 34.8984 110.359 35.5781 110.359 36.3594C110.359 37.1562 110.539 37.8828 110.898 38.5391C111.258 39.1953 111.797 39.7188 112.516 40.1094C113.25 40.4844 114.148 40.6719 115.211 40.6719C116.539 40.6719 117.711 40.3906 118.727 39.8281C119.742 39.2656 120.547 38.5781 121.141 37.7656C121.75 36.9531 122.078 36.1641 122.125 35.3984L123.977 37.4844C123.867 38.1406 123.57 38.8672 123.086 39.6641C122.602 40.4609 121.953 41.2266 121.141 41.9609C120.344 42.6797 119.391 43.2812 118.281 43.7656C117.188 44.2344 115.953 44.4688 114.578 44.4688C112.859 44.4688 111.352 44.1328 110.055 43.4609C108.773 42.7891 107.773 41.8906 107.055 40.7656C106.352 39.625 106 38.3516 106 36.9453C106 35.5859 106.266 34.3906 106.797 33.3594C107.328 32.3125 108.094 31.4453 109.094 30.7578C110.094 30.0547 111.297 29.5234 112.703 29.1641C114.109 28.8047 115.68 28.625 117.414 28.625H122.453ZM160.352 31.6016V31.0625C160.352 29.2344 160.617 27.5391 161.148 25.9766C161.68 24.3984 162.445 23.0312 163.445 21.875C164.445 20.7031 165.656 19.7969 167.078 19.1562C168.5 18.5 170.094 18.1719 171.859 18.1719C173.641 18.1719 175.242 18.5 176.664 19.1562C178.102 19.7969 179.32 20.7031 180.32 21.875C181.336 23.0312 182.109 24.3984 182.641 25.9766C183.172 27.5391 183.438 29.2344 183.438 31.0625V31.6016C183.438 33.4297 183.172 35.125 182.641 36.6875C182.109 38.25 181.336 39.6172 180.32 40.7891C179.32 41.9453 178.109 42.8516 176.688 43.5078C175.281 44.1484 173.688 44.4688 171.906 44.4688C170.125 44.4688 168.523 44.1484 167.102 43.5078C165.68 42.8516 164.461 41.9453 163.445 40.7891C162.445 39.6172 161.68 38.25 161.148 36.6875C160.617 35.125 160.352 33.4297 160.352 31.6016ZM164.688 31.0625V31.6016C164.688 32.8672 164.836 34.0625 165.133 35.1875C165.43 36.2969 165.875 37.2812 166.469 38.1406C167.078 39 167.836 39.6797 168.742 40.1797C169.648 40.6641 170.703 40.9062 171.906 40.9062C173.094 40.9062 174.133 40.6641 175.023 40.1797C175.93 39.6797 176.68 39 177.273 38.1406C177.867 37.2812 178.312 36.2969 178.609 35.1875C178.922 34.0625 179.078 32.8672 179.078 31.6016V31.0625C179.078 29.8125 178.922 28.6328 178.609 27.5234C178.312 26.3984 177.859 25.4062 177.25 24.5469C176.656 23.6719 175.906 22.9844 175 22.4844C174.109 21.9844 173.062 21.7344 171.859 21.7344C170.672 21.7344 169.625 21.9844 168.719 22.4844C167.828 22.9844 167.078 23.6719 166.469 24.5469C165.875 25.4062 165.43 26.3984 165.133 27.5234C164.836 28.6328 164.688 29.8125 164.688 31.0625ZM191.289 18.6406L196.844 27.875L202.469 18.6406H207.555L199.258 31.1562L207.812 44H202.797L196.938 34.4844L191.078 44H186.039L194.57 31.1562L186.297 18.6406H191.289Z" fill="black"/>
</svg>
