<svg width="593" height="504" viewBox="0 0 593 504" fill="none" xmlns="http://www.w3.org/2000/svg">
<g clip-path="url(#clip0_15_8336)">
<path d="M307.441 74.7786C307.893 76.0777 308.625 77.262 309.585 78.2481C310.545 79.2342 311.71 79.9981 312.998 80.486C314.286 80.9738 315.665 81.1738 317.039 81.0719C318.412 80.9699 319.747 80.5684 320.948 79.8958L402.658 106.067L429.702 84.8815L324.306 66.4541C323.04 64.5137 321.106 63.1042 318.869 62.4927C316.633 61.8813 314.249 62.1103 312.17 63.1364C310.092 64.1625 308.462 65.9144 307.59 68.0601C306.719 70.2059 306.665 72.5963 307.441 74.7786Z" fill="#FFB6B6"/>
<path d="M458.785 109.754C458.785 109.754 458.045 107.941 448.268 111.885C436.132 116.782 371.522 113.508 367.941 95.9178C366.798 97.096 365.295 97.861 363.669 98.0922C362.042 98.3234 360.385 98.0078 358.958 97.1949L369.058 75.0587C374.316 73.3805 377.173 72.1389 377.513 74.2768L393.32 73.3483L457.339 84.1091L459.109 106.175L458.785 109.754Z" fill="#F2F2F2"/>
<path d="M438.651 87.5603L470.444 84.812L500.25 98.4169L516.987 329.606L451.305 299.275L423.125 307.06L438.651 87.5603Z" fill="#F2F2F2"/>
<path d="M516.87 491.044L504.811 491.043L499.074 444.596L516.872 444.597L516.87 491.044Z" fill="#FFB6B6"/>
<path d="M519.946 502.716L481.062 502.715V502.224C481.062 498.216 482.657 494.372 485.495 491.538C488.333 488.704 492.183 487.111 496.197 487.111H496.197L503.3 481.73L516.552 487.112L519.947 487.112L519.946 502.716Z" fill="#2F2E41"/>
<path d="M470.138 483.456L458.375 486.107L442.532 442.063L459.894 438.149L470.138 483.456Z" fill="#FFB6B6"/>
<path d="M475.712 494.165L437.783 502.716L437.674 502.237C436.79 498.328 437.498 494.227 439.641 490.839C441.785 487.45 445.188 485.05 449.104 484.167L449.105 484.167L454.846 477.356L468.96 479.69L472.271 478.944L475.712 494.165Z" fill="#2F2E41"/>
<path d="M532.144 207.092C537.798 224.12 537.2 242.603 530.785 262.44L528.042 374.129C532.576 379.111 533.269 423.691 526.285 438.237C516.959 457.662 525.536 460.259 518.944 473.145H499.822L490.984 414.763L490.355 367.44C487.815 361.436 489.9 340.305 489.9 340.305L489.166 296.489L454.688 373.244C470.308 386.594 468.902 429.719 469.16 448.847L474.282 471.417L450.748 473.518L440.362 442.909L428.686 424.047C422.735 390.626 420.971 366.091 426.044 356.068L460.654 227.488L532.144 207.092Z" fill="#2F2E41"/>
<path d="M534.594 201.409L531.442 195.114C527.583 171.243 523.771 148.979 528.95 128.952C529.276 111.468 523.864 95.0438 508.838 86.0748L502.059 82.0267L498.628 73.3362L467.033 74.1068L466.94 85.4991L455.624 103.521V103.595L456.33 201.66L459.454 211.78L454.74 223.553L457.241 231.065L519.531 221.121L526.774 219.96C527.611 219.693 528.418 219.341 529.183 218.911C531.782 217.47 533.819 215.197 534.966 212.458C535.031 212.3 535.087 212.152 535.143 211.994C535.632 210.716 535.914 209.368 535.98 208.002C536.093 205.722 535.616 203.451 534.594 201.409Z" fill="#3F3D56"/>
<path opacity="0.2" d="M535.979 208.001C535.913 209.368 535.631 210.716 535.142 211.994L529.182 218.911C528.417 219.341 527.61 219.693 526.774 219.96L519.53 221.121L530.01 201.446L506.978 151.095L535.979 208.001Z" fill="black"/>
<path d="M46.6106 411.431C39.2922 411.505 31.9795 410.999 24.7411 409.919C18.0014 408.78 14.584 407.164 14.584 405.113L14.5865 405.076L27.1594 309.49L20.8272 291.364C20.5613 290.603 20.4829 289.789 20.5984 288.992C20.7139 288.194 21.02 287.436 21.4909 286.781C21.9618 286.126 22.5835 285.594 23.3037 285.23C24.0238 284.866 24.8211 284.68 25.6283 284.689L67.2703 285.122C68.0628 285.13 68.842 285.325 69.5445 285.691C70.2471 286.057 70.8531 286.584 71.313 287.228C71.773 287.873 72.074 288.616 72.1914 289.399C72.3089 290.182 72.2395 290.981 71.9888 291.731L66.0615 309.488L78.6347 405.076C78.6372 410.1 58.5058 411.431 46.6106 411.431Z" fill="#F2F2F2"/>
<path d="M43.2168 397.975H22.876V399.117H43.2168V397.975Z" fill="#CCCCCC"/>
<path d="M43.2168 391.122H22.876V392.264H43.2168V391.122Z" fill="#CCCCCC"/>
<path d="M43.2168 384.27H22.876V385.412H43.2168V384.27Z" fill="#CCCCCC"/>
<path d="M43.2168 377.417H22.876V378.559H43.2168V377.417Z" fill="#CCCCCC"/>
<path d="M43.2168 370.564H22.876V371.706H43.2168V370.564Z" fill="#CCCCCC"/>
<path d="M229.619 411.431C222.301 411.505 214.988 410.999 207.75 409.919C201.01 408.78 197.593 407.164 197.593 405.113L197.595 405.076L210.168 309.49L203.836 291.364C203.57 290.603 203.492 289.789 203.607 288.992C203.723 288.194 204.029 287.436 204.5 286.781C204.971 286.126 205.592 285.594 206.312 285.23C207.033 284.866 207.83 284.68 208.637 284.689L250.279 285.122C251.072 285.13 251.851 285.325 252.553 285.691C253.256 286.057 253.862 286.584 254.322 287.228C254.782 287.873 255.083 288.616 255.2 289.399C255.318 290.182 255.248 290.981 254.998 291.731L249.07 309.488L261.643 405.076C261.646 410.1 241.515 411.431 229.619 411.431Z" fill="#F2F2F2"/>
<path d="M226.227 397.975H205.886V399.117H226.227V397.975Z" fill="#CCCCCC"/>
<path d="M226.227 391.122H205.886V392.264H226.227V391.122Z" fill="#CCCCCC"/>
<path d="M226.227 384.27H205.886V385.412H226.227V384.27Z" fill="#CCCCCC"/>
<path d="M226.227 377.417H205.886V378.559H226.227V377.417Z" fill="#CCCCCC"/>
<path d="M226.227 370.564H205.886V371.706H226.227V370.564Z" fill="#CCCCCC"/>
<path d="M143.834 411.431C136.516 411.505 129.203 410.999 121.965 409.919C115.225 408.78 111.808 407.164 111.808 405.113L111.81 405.076L124.383 309.49L118.051 291.364C117.785 290.603 117.706 289.789 117.822 288.992C117.938 288.194 118.244 287.436 118.715 286.781C119.185 286.126 119.807 285.594 120.527 285.23C121.247 284.866 122.045 284.68 122.852 284.689L164.494 285.122C165.286 285.13 166.066 285.325 166.768 285.691C167.471 286.057 168.077 286.584 168.537 287.228C168.997 287.873 169.298 288.616 169.415 289.399C169.533 290.182 169.463 290.981 169.213 291.731L163.285 309.488L175.858 405.076C175.861 410.1 155.729 411.431 143.834 411.431Z" fill="#F2F2F2"/>
<path d="M140.44 397.975H120.1V399.117H140.44V397.975Z" fill="#CCCCCC"/>
<path d="M140.44 391.122H120.1V392.264H140.44V391.122Z" fill="#CCCCCC"/>
<path d="M140.44 384.27H120.1V385.412H140.44V384.27Z" fill="#CCCCCC"/>
<path d="M140.44 377.417H120.1V378.559H140.44V377.417Z" fill="#CCCCCC"/>
<path d="M140.44 370.564H120.1V371.706H140.44V370.564Z" fill="#CCCCCC"/>
<path d="M279.089 418.534H240.2V353.432H279.089C281.213 353.432 283.249 352.59 284.751 351.09C286.252 349.591 287.096 347.557 287.096 345.437C287.096 343.317 286.252 341.283 284.751 339.784C283.249 338.284 281.213 337.442 279.089 337.442H8.00665C5.88315 337.442 3.84664 338.284 2.3451 339.784C0.843561 341.283 0 343.317 0 345.437C0 347.557 0.843561 349.591 2.3451 351.09C3.84664 352.59 5.88315 353.432 8.00665 353.432H41.1771V418.534H8.00665C5.88315 418.534 3.84664 419.376 2.3451 420.875C0.843561 422.375 0 424.408 0 426.528C0 428.649 0.843561 430.682 2.3451 432.182C3.84664 433.681 5.88315 434.523 8.00665 434.523H279.089C280.141 434.524 281.183 434.319 282.156 433.917C283.128 433.516 284.012 432.927 284.756 432.185C285.501 431.442 286.091 430.56 286.494 429.59C286.897 428.619 287.104 427.579 287.104 426.528C287.104 425.478 286.897 424.437 286.494 423.467C286.091 422.496 285.501 421.615 284.756 420.872C284.012 420.13 283.128 419.541 282.156 419.14C281.183 418.738 280.141 418.532 279.089 418.534ZM57.1904 418.534V353.432H224.186V418.534H57.1904Z" fill="#CCCCCC"/>
<path d="M272.792 502.824C252.901 502.824 234.349 501.54 220.556 499.21C203.54 496.336 195.268 492.159 195.268 486.442L195.277 486.262L225.143 259.178L210.191 216.376C209.473 214.363 209.258 212.204 209.564 210.089C209.871 207.974 210.689 205.965 211.948 204.236C213.179 202.481 214.824 201.057 216.739 200.09C218.653 199.124 220.777 198.644 222.922 198.695L321.938 199.725C324.037 199.747 326.101 200.264 327.962 201.233C329.822 202.203 331.427 203.598 332.646 205.304C333.864 207.011 334.661 208.981 334.972 211.053C335.283 213.126 335.1 215.243 334.436 217.231L320.439 259.162L350.31 486.266V486.353C350.314 492.517 340.949 496.894 321.68 499.734C302.751 502.523 281.186 502.824 272.792 502.824Z" fill="white"/>
<path d="M272.792 502.824C252.901 502.824 234.349 501.54 220.556 499.21C203.54 496.336 195.268 492.159 195.268 486.442L195.277 486.262L225.143 259.178L210.191 216.376C209.473 214.363 209.258 212.204 209.564 210.089C209.871 207.974 210.689 205.965 211.948 204.236C213.179 202.481 214.824 201.057 216.739 200.09C218.653 199.124 220.777 198.644 222.922 198.695L321.938 199.725C324.037 199.747 326.101 200.264 327.962 201.233C329.822 202.203 331.427 203.598 332.646 205.304C333.864 207.011 334.661 208.981 334.972 211.053C335.283 213.126 335.1 215.243 334.436 217.231L320.439 259.162L350.31 486.266V486.353C350.314 492.517 340.949 496.894 321.68 499.734C302.751 502.523 281.186 502.824 272.792 502.824ZM222.648 201.409C220.982 201.407 219.34 201.807 217.861 202.576C216.383 203.344 215.113 204.457 214.158 205.821C213.156 207.196 212.505 208.795 212.261 210.478C212.017 212.162 212.188 213.879 212.759 215.481L227.925 258.891L227.883 259.211L197.982 486.531C197.988 488.758 200.979 493.149 221.01 496.531C234.658 498.837 253.048 500.108 272.792 500.108C290.147 500.108 308.275 498.963 321.283 497.047C337.901 494.598 347.474 490.734 347.589 486.435L317.66 258.897L331.855 216.372C332.383 214.79 332.529 213.106 332.282 211.456C332.034 209.807 331.4 208.24 330.43 206.882C329.461 205.523 328.184 204.413 326.703 203.642C325.223 202.87 323.58 202.459 321.91 202.441L222.879 201.411C222.802 201.41 222.725 201.409 222.648 201.409Z" fill="#3F3D56"/>
<path opacity="0.5" d="M329.235 458.658H216.349L234.244 337.828L234.731 334.498L242.186 284.196C242.641 281.128 246.179 283.511 248.68 281.671C264.21 270.252 279.927 269.92 295.779 280.927C298.229 282.629 301.614 280.637 302.072 283.582L309.903 334.037L310.66 338.917L329.235 458.658Z" fill="#0072FF"/>
<path d="M315.302 475.577H230.16C227.928 475.577 225.722 475.097 223.692 474.169C221.663 473.241 219.858 471.887 218.399 470.2C216.941 468.513 215.864 466.531 215.242 464.391C214.62 462.25 214.467 460.001 214.793 457.796L239.669 289.828C239.797 288.969 240.151 288.159 240.693 287.48C241.236 286.802 241.948 286.278 242.758 285.963C243.569 285.647 244.448 285.551 245.307 285.684C246.167 285.817 246.976 286.175 247.652 286.72C262.813 298.847 279.336 298.574 296.762 285.912C297.438 285.419 298.23 285.109 299.062 285.012C299.893 284.916 300.736 285.036 301.507 285.361C302.294 285.683 302.984 286.204 303.51 286.872C304.036 287.541 304.379 288.334 304.507 289.174L330.653 457.691C330.996 459.903 330.856 462.162 330.242 464.314C329.628 466.466 328.555 468.46 327.097 470.16C325.639 471.859 323.829 473.223 321.794 474.158C319.758 475.093 317.543 475.577 315.302 475.577Z" fill="#0072FF"/>
<path d="M281.043 455.885H232.669V458.601H281.043V455.885Z" fill="white"/>
<path d="M281.043 439.588H232.669V442.304H281.043V439.588Z" fill="white"/>
<path d="M281.043 423.291H232.669V426.007H281.043V423.291Z" fill="white"/>
<path d="M281.043 406.994H232.669V409.71H281.043V406.994Z" fill="white"/>
<path d="M281.043 390.697H232.669V393.413H281.043V390.697Z" fill="white"/>
<path d="M312.941 347.945C309.189 351.665 304.676 354.53 299.71 356.345C294.745 358.159 289.445 358.879 284.175 358.456C278.164 357.913 272.682 355.672 267.405 352.847C261.951 349.927 256.674 346.437 250.636 344.807C245.345 343.382 239.075 343.191 234.532 346.722C234.161 347.01 233.707 347.171 233.238 347.183C232.768 347.196 232.307 347.058 231.921 346.79L232.438 343.259C237.497 339.728 243.645 339.185 249.67 340.394C261.802 342.838 271.01 352.861 283.441 354.301C288.803 354.903 294.231 354.167 299.238 352.156C304.245 350.146 308.673 346.926 312.125 342.784L312.138 342.77L312.941 347.945Z" fill="white"/>
<path d="M593 502.895C593.001 503.04 592.973 503.184 592.917 503.318C592.862 503.453 592.78 503.575 592.677 503.677C592.574 503.78 592.452 503.861 592.318 503.917C592.183 503.972 592.039 504 591.894 504H1.17975C0.886284 504 0.604837 503.884 0.397328 503.676C0.189818 503.469 0.0732422 503.188 0.0732422 502.895C0.0732422 502.602 0.189818 502.321 0.397328 502.114C0.604837 501.907 0.886284 501.79 1.17975 501.79H591.894C592.039 501.79 592.183 501.818 592.318 501.873C592.452 501.929 592.574 502.01 592.677 502.113C592.78 502.216 592.862 502.338 592.917 502.472C592.973 502.606 593.001 502.75 593 502.895Z" fill="#CCCCCC"/>
<path d="M470.267 84.7749L502.06 82.0266L531.865 95.6315L548.602 326.821L482.921 296.489L454.74 304.275L470.267 84.7749Z" fill="#F2F2F2"/>
<path d="M313.354 84.4898C316.436 84.4898 318.933 81.9956 318.933 78.919C318.933 75.8423 316.436 73.3481 313.354 73.3481C310.273 73.3481 307.775 75.8423 307.775 78.919C307.775 81.9956 310.273 84.4898 313.354 84.4898Z" fill="#0072FF"/>
<path d="M304.056 152.268C307.137 152.268 309.635 149.774 309.635 146.697C309.635 143.621 307.137 141.126 304.056 141.126C300.974 141.126 298.477 143.621 298.477 146.697C298.477 149.774 300.974 152.268 304.056 152.268Z" fill="#0072FF"/>
<path d="M274.301 192.192C277.382 192.192 279.88 189.698 279.88 186.622C279.88 183.545 277.382 181.051 274.301 181.051C271.219 181.051 268.722 183.545 268.722 186.622C268.722 189.698 271.219 192.192 274.301 192.192Z" fill="#0072FF"/>
<path d="M413.577 235.355V175.552C413.579 174.342 414.061 173.182 414.918 172.326C415.775 171.47 416.937 170.988 418.149 170.987H463.38C464.592 170.988 465.754 171.47 466.611 172.326C467.468 173.182 467.95 174.342 467.952 175.552V235.355C467.95 236.565 467.468 237.726 466.611 238.581C465.754 239.437 464.592 239.919 463.38 239.92H418.149C416.937 239.919 415.775 239.437 414.918 238.581C414.061 237.726 413.579 236.565 413.577 235.355Z" fill="#E6E6E6"/>
<path d="M417.046 217.292V178.845C417.047 177.712 417.499 176.625 418.301 175.824C419.104 175.022 420.193 174.571 421.328 174.57H460.199C461.335 174.571 462.423 175.022 463.226 175.823C464.029 176.625 464.48 177.712 464.482 178.845V232.061C464.48 233.195 464.029 234.282 463.226 235.083C462.423 235.885 461.335 236.336 460.199 236.337H436.119C431.062 236.331 426.214 234.323 422.639 230.752C419.063 227.182 417.052 222.341 417.046 217.292Z" fill="white"/>
<path d="M423.34 189.573C423.341 188.465 423.782 187.403 424.567 186.62C425.351 185.836 426.415 185.396 427.524 185.395H454.489C455.599 185.395 456.663 185.835 457.448 186.618C458.233 187.402 458.674 188.465 458.674 189.573C458.674 190.681 458.233 191.743 457.448 192.527C456.663 193.311 455.599 193.751 454.489 193.751H427.524C426.415 193.75 425.351 193.309 424.567 192.526C423.782 191.742 423.341 190.68 423.34 189.573Z" fill="#E6E6E6"/>
<path d="M423.34 202.571C423.341 201.464 423.782 200.402 424.567 199.618C425.351 198.835 426.415 198.395 427.524 198.393H454.489C455.599 198.393 456.663 198.834 457.448 199.617C458.233 200.401 458.674 201.463 458.674 202.571C458.674 203.68 458.233 204.742 457.448 205.526C456.663 206.309 455.599 206.75 454.489 206.75H427.524C426.415 206.748 425.351 206.308 424.567 205.524C423.782 204.741 423.341 203.679 423.34 202.571Z" fill="#E6E6E6"/>
<path d="M423.34 215.57C423.341 214.462 423.782 213.4 424.567 212.617C425.351 211.834 426.415 211.393 427.524 211.392H454.489C455.599 211.392 456.663 211.832 457.448 212.616C458.233 213.399 458.674 214.462 458.674 215.57C458.674 216.678 458.233 217.741 457.448 218.524C456.663 219.308 455.599 219.748 454.489 219.748H427.524C426.415 219.747 425.351 219.306 424.567 218.523C423.782 217.74 423.341 216.678 423.34 215.57Z" fill="#E6E6E6"/>
<path d="M450.424 245.672C451.697 245.147 452.839 244.349 453.769 243.335C454.7 242.321 455.397 241.116 455.811 239.804C456.225 238.493 456.346 237.106 456.165 235.743C455.984 234.379 455.506 233.072 454.765 231.913L487.56 202.165L499.065 157.726L478.647 156.03L472.405 190.902L441.133 229.337C439.265 230.71 437.967 232.719 437.484 234.984C437.001 237.249 437.367 239.612 438.512 241.625C439.657 243.639 441.502 245.163 443.698 245.909C445.893 246.654 448.286 246.57 450.424 245.672V245.672Z" fill="#FFB6B6"/>
<path d="M502.21 117.594C502.21 117.594 507.187 117.668 504.945 127.957C503.151 136.194 496.343 182.548 490.909 192.918C492.152 193.99 493.004 195.445 493.328 197.053C493.653 198.661 493.432 200.331 492.701 201.8L469.989 193.002C468.01 187.857 471.329 186.258 473.447 185.796L473.031 169.658L476.287 128.523L498.614 117.478L502.21 117.594Z" fill="#F2F2F2"/>
<path d="M508.9 41.4433C507.84 49.1589 503.757 56.1389 497.546 60.8497C491.335 65.5604 483.506 67.6166 475.778 66.5664C468.05 65.5161 461.056 61.4454 456.332 55.2486C451.608 49.0519 449.541 41.236 450.585 33.5183L450.642 33.1013C451.861 25.4872 456.029 18.6569 462.246 14.0836C468.464 9.51039 476.232 7.56077 483.876 8.65532C491.52 9.74988 498.427 13.8009 503.106 19.9345C507.786 26.0681 509.863 33.7927 508.891 41.4421L508.9 41.4433Z" fill="#FFB8B8"/>
<path d="M501.411 56.5776C502.922 53.5125 504.475 50.2217 504.05 46.8317C503.625 43.4418 500.296 40.2015 497.027 41.209C495.072 41.8114 493.594 43.7391 491.551 43.8377C488.739 43.9734 487.127 40.7601 486.252 38.0885L482.687 27.2077C479.264 29.8714 475.295 31.7477 471.062 32.7028C466.829 33.6579 462.437 33.6682 458.2 32.733C454.891 31.9775 451.547 30.5043 449.606 27.7234C447.664 24.9424 447.676 20.6287 450.339 18.5258C451.644 17.4947 453.382 17.1029 454.63 16.0026C455.404 15.3201 455.937 14.4069 456.151 13.3981C456.365 12.3893 456.248 11.3386 455.817 10.4015C455.386 9.46433 454.665 8.69051 453.76 8.19454C452.854 7.69857 451.813 7.50679 450.79 7.64761L459.765 6.52755L457.091 1.69825C459.018 3.21493 461.7 3.41891 464.114 2.98477C466.529 2.55064 468.803 1.55789 471.165 0.89584C482.505 -2.28244 495.685 3.24369 501.353 13.5534C503.561 12.817 505.942 12.7681 508.179 13.4131C510.416 14.0581 512.404 15.3666 513.879 17.1652C516.282 20.2101 516.935 24.2735 517.028 28.1488C517.203 35.79 515.535 43.361 512.164 50.223C511.197 52.4026 509.808 54.3699 508.077 56.0116C507.205 56.8256 506.166 57.4393 505.032 57.8097C503.898 58.18 502.696 58.2981 501.511 58.1556" fill="#2F2E41"/>
</g>
<defs>
<clipPath id="clip0_15_8336">
<rect width="593" height="504" fill="white"/>
</clipPath>
</defs>
</svg>
