<svg width="593" height="504" viewBox="0 0 593 504" fill="none" xmlns="http://www.w3.org/2000/svg">
<path d="M181.501 233.73H105.169V341.002H181.501V233.73Z" fill="#CCCCCC"/>
<path d="M66.3096 502.345H27.4497L23.2861 460.483H70.4732L66.3096 502.345Z" fill="#E6E6E6"/>
<path d="M144.342 472.023L143.031 494.555C142.971 495.575 143.086 496.599 143.368 497.558C143.649 498.518 144.09 499.391 144.662 500.118C145.234 500.846 145.923 501.411 146.683 501.777C147.442 502.142 148.256 502.3 149.068 502.238L158.276 501.537C158.703 501.504 159.119 501.354 159.494 501.097C159.869 500.839 160.195 500.481 160.447 500.048C160.7 499.615 160.874 499.117 160.956 498.59C161.039 498.063 161.027 497.519 160.924 496.998L155.812 471.302L144.342 472.023Z" fill="#E6E6E6"/>
<path d="M221.365 485.347C232.202 488.533 239.944 493.062 245.03 499.191C246.841 501.358 249.211 502.634 251.708 502.789C254.898 503 257.506 502.551 259.466 501.451H259.466C259.968 501.172 260.402 500.73 260.722 500.171C261.042 499.611 261.238 498.953 261.287 498.267C261.347 497.569 261.257 496.864 261.026 496.225C260.796 495.586 260.433 495.036 259.977 494.633L234.274 471.648L223.357 477.137L220.81 480.338C220.534 480.685 220.326 481.107 220.202 481.572C220.078 482.036 220.042 482.531 220.095 483.016C220.149 483.502 220.292 483.965 220.512 484.369C220.732 484.774 221.024 485.108 221.365 485.347H221.365Z" fill="#E6E6E6"/>
<path d="M188.012 117.471L114.544 116.616C114.729 103.167 117.218 89.9607 122.661 78.143C126.235 70.3815 126.158 61.9347 125.296 54.8185C123.967 43.8366 127.058 32.6006 133.927 25.6099C139.176 20.2582 145.801 17.5034 152.554 17.8642L153.98 17.9389C158.627 18.1816 163.151 19.8876 167.136 22.9002C171.122 25.9129 174.441 30.1356 176.79 35.1807C179.177 40.5666 180.14 46.7669 179.539 52.8856C179.073 58.6427 180.187 64.4585 182.794 70.3297C187.29 83.222 188.264 99.7194 188.012 117.471Z" fill="#2F2E41"/>
<path d="M237.167 472.847L222.748 477.574L152.534 285.326L156.922 472.847H142.503C127.095 384.624 99.2779 282.804 111.784 250.659L186.387 245.143L237.167 472.847Z" fill="#0072FF"/>
<path d="M151.907 85.1993C162.64 85.1993 171.341 74.2639 171.341 60.7743C171.341 47.2848 162.64 36.3494 151.907 36.3494C141.174 36.3494 132.473 47.2848 132.473 60.7743C132.473 74.2639 141.174 85.1993 151.907 85.1993Z" fill="#FFB9B9"/>
<path d="M168.834 105.685L136.861 103.321C139.995 94.2825 141.246 85.5788 139.996 77.3203H163.819C163.765 83.6612 166.275 94.6298 168.834 105.685Z" fill="#FFB9B9"/>
<path d="M188.894 252.234L118.681 258.538L125.89 102.139L138.115 97.8057L151.907 101.745L165.698 93.0779L174.475 97.0182L188.894 252.234Z" fill="#0072FF"/>
<path d="M130.592 364.904L82.6328 351.116C96.8934 291.682 122.585 155.715 114.292 107.26L139.368 93.0781L130.592 364.904Z" fill="#E6E6E6"/>
<path d="M107.396 193.142L89.2158 178.96L104.721 121.888C106.45 115.999 109.762 111.054 114.085 107.909L119.308 104.109L116.173 161.626L107.396 193.142Z" fill="#E6E6E6"/>
<path d="M230.585 351.904C215.448 362.91 177.611 369.046 160.998 361.359C159.775 307.66 157.378 155.764 165.073 91.5024L192.657 105.685L190.149 148.231C176.962 184.628 215.255 311.397 230.585 351.904Z" fill="#E6E6E6"/>
<path d="M228.39 186.051L211.463 178.96L188.895 146.655L192.656 105.684L230.271 171.868L228.39 186.051Z" fill="#E6E6E6"/>
<path d="M175.343 216.718C175.62 218.246 176.367 219.573 177.421 220.409C178.476 221.245 179.751 221.521 180.967 221.177L195.335 217.087L193.259 205.561L178.89 209.65C177.674 209.996 176.617 210.935 175.952 212.261C175.286 213.586 175.067 215.19 175.343 216.718Z" fill="#FFB9B9"/>
<path d="M168.833 54.471C158.039 48.8925 147.378 48.4888 136.861 53.6831L132.473 33.9856H172.595L168.833 54.471Z" fill="#2F2E41"/>
<path d="M188.268 203.384L196.417 222.294C210.125 217.489 222.005 202.341 233.405 184.475L230.271 171.868L210.836 178.172L188.268 203.384Z" fill="#E6E6E6"/>
<path d="M182.312 164.383H179.805C179.805 119.809 172.502 88.7449 165.386 88.7449L164.759 85.5933C171.141 85.5933 175.21 98.5217 177.499 109.368C180.603 124.071 182.312 143.609 182.312 164.383Z" fill="#3F3D56"/>
<path d="M124.637 153.353H122.129C122.129 112.529 129.482 87.1689 140.309 87.1689L139.682 90.3205C132.193 90.3205 124.637 109.811 124.637 153.353Z" fill="#3F3D56"/>
<path d="M181.058 173.05C184.521 173.05 187.327 169.523 187.327 165.171C187.327 160.82 184.521 157.292 181.058 157.292C177.596 157.292 174.789 160.82 174.789 165.171C174.789 169.523 177.596 173.05 181.058 173.05Z" fill="#3F3D56"/>
<path d="M114.605 172.262H112.098C112.098 160.967 117.16 151.777 123.382 151.777V154.928C118.542 154.928 114.605 162.704 114.605 172.262Z" fill="#3F3D56"/>
<path d="M134.667 172.262H132.16C132.16 162.704 128.222 154.928 123.383 154.928V151.777C129.605 151.777 134.667 160.967 134.667 172.262Z" fill="#3F3D56"/>
<path d="M133.413 176.202C134.798 176.202 135.921 174.791 135.921 173.05C135.921 171.31 134.798 169.899 133.413 169.899C132.028 169.899 130.905 171.31 130.905 173.05C130.905 174.791 132.028 176.202 133.413 176.202Z" fill="#3F3D56"/>
<path d="M113.352 176.202C114.737 176.202 115.86 174.791 115.86 173.05C115.86 171.31 114.737 169.899 113.352 169.899C111.967 169.899 110.845 171.31 110.845 173.05C110.845 174.791 111.967 176.202 113.352 176.202Z" fill="#3F3D56"/>
<path d="M82.0059 144.069L97.6518 147.581L133.413 211.487L114.414 205.868L82.0059 144.069Z" fill="#0072FF"/>
<path d="M79.2316 143.287C78.9932 143.291 78.7601 143.376 78.5568 143.533C78.3534 143.689 78.1873 143.912 78.0757 144.176C77.9641 144.441 77.9111 144.739 77.9224 145.038C77.9337 145.338 78.0087 145.628 78.1397 145.878L111.567 209.62C111.754 209.976 112.042 210.229 112.372 210.327L127.925 214.926C128.187 215.003 128.462 214.979 128.713 214.855C128.964 214.732 129.179 214.516 129.33 214.235C129.481 213.955 129.56 213.624 129.558 213.285C129.555 212.946 129.471 212.617 129.316 212.34L92.6147 146.754C92.5152 146.576 92.3886 146.423 92.2422 146.306C92.0958 146.189 91.9325 146.109 91.7616 146.071L79.4823 143.315C79.3996 143.297 79.3157 143.287 79.2316 143.287Z" fill="#3F3D56"/>
<path d="M100.083 188.862L101.012 200.623L115.672 198.794C116.913 198.639 118.054 197.871 118.845 196.659C119.635 195.446 120.01 193.889 119.887 192.33C119.764 190.77 119.153 189.336 118.188 188.342C117.223 187.349 115.984 186.878 114.743 187.033L100.083 188.862Z" fill="#FFB9B9"/>
<path d="M87.335 187.499C87.3563 191.51 88.6378 195.347 90.9003 198.175C93.1627 201.002 96.2229 202.592 99.4137 202.596H101.824L103.579 184.216L89.0486 177.641L87.335 187.499Z" fill="#E6E6E6"/>
<path d="M593 0H307.102V189.252H593V0Z" fill="#E6E6E6"/>
<path d="M315.429 178.786H584.672V10.4656H315.429V178.786Z" fill="white"/>
<path d="M432.009 34.885H336.247V155.239H432.009V34.885Z" fill="#3F3D56"/>
<path d="M409.11 89.8291C410.643 89.8291 411.885 88.2672 411.885 86.3406C411.885 84.4139 410.643 82.8521 409.11 82.8521C407.577 82.8521 406.334 84.4139 406.334 86.3406C406.334 88.2672 407.577 89.8291 409.11 89.8291Z" fill="#0072FF"/>
<path d="M398.701 77.6194C400.233 77.6194 401.476 76.0575 401.476 74.1308C401.476 72.2042 400.233 70.6423 398.701 70.6423C397.168 70.6423 395.925 72.2042 395.925 74.1308C395.925 76.0575 397.168 77.6194 398.701 77.6194Z" fill="#0072FF"/>
<path d="M397.312 86.3406C396.291 86.3408 395.29 86.6974 394.42 87.3705C393.654 85.9229 392.754 84.5949 391.738 83.4147C391.75 83.2286 391.761 83.0421 391.761 82.8521C391.762 81.4831 391.442 80.1442 390.841 79.0022C390.241 77.8603 389.386 76.9658 388.383 76.4304C387.381 75.895 386.275 75.7423 385.204 75.9915C384.133 76.2406 383.144 76.8805 382.361 77.8313C380.874 77.5662 379.366 77.5496 377.876 77.7821C377.877 77.7275 377.883 77.6743 377.883 77.6193C377.884 76.4515 377.652 75.302 377.208 74.2762C376.763 73.2503 376.122 72.381 375.341 71.7479C374.56 71.1148 373.665 70.7381 372.739 70.6524C371.812 70.5667 370.883 70.7747 370.037 71.2573C369.191 71.74 368.454 72.4818 367.896 73.4149C367.337 74.348 366.973 75.4424 366.838 76.5979C366.704 77.7533 366.802 78.9328 367.124 80.0283C367.446 81.1238 367.981 82.1001 368.681 82.8679C367.752 83.8684 366.909 84.989 366.166 86.2113C365.481 85.4946 364.669 84.9959 363.798 84.7574C362.927 84.5188 362.023 84.5474 361.163 84.8407C360.302 85.134 359.511 85.6834 358.855 86.4425C358.199 87.2015 357.699 88.1478 357.396 89.2014C357.092 90.255 356.996 91.3849 357.113 92.4954C357.231 93.606 357.56 94.6645 358.072 95.5816C358.584 96.4987 359.264 97.2472 360.055 97.764C360.846 98.2807 361.725 98.5505 362.616 98.5504L362.634 98.5493C362.625 98.8393 362.616 99.1296 362.616 99.4225C362.616 101.178 362.785 102.927 363.118 104.632C361.468 105.412 360.003 106.706 358.861 108.393C357.718 110.08 356.935 112.104 356.585 114.276C356.235 116.447 356.33 118.694 356.861 120.807C357.391 122.92 358.34 124.829 359.619 126.354C360.897 127.879 362.463 128.971 364.169 129.528C365.876 130.084 367.667 130.087 369.374 129.535C371.081 128.983 372.649 127.895 373.93 126.373C375.211 124.852 376.163 122.946 376.698 120.834C380.559 121.767 384.558 121.021 388.038 118.72C388.393 119.771 388.949 120.697 389.655 121.416C390.361 122.134 391.197 122.624 392.089 122.842C392.982 123.06 393.903 122.999 394.772 122.665C395.641 122.331 396.432 121.734 397.074 120.926C397.717 120.119 398.192 119.125 398.458 118.033C398.723 116.94 398.772 115.783 398.598 114.661C398.425 113.54 398.035 112.49 397.464 111.602C396.892 110.714 396.155 110.016 395.319 109.57C396.521 106.702 397.196 103.532 397.295 100.294L397.312 100.295C398.785 100.295 400.197 99.5596 401.238 98.2511C402.279 96.9427 402.864 95.1681 402.864 93.3176C402.864 91.4672 402.279 89.6926 401.238 88.3841C400.197 87.0757 398.785 86.3406 397.312 86.3406V86.3406Z" fill="#0072FF"/>
<path d="M395.925 32.2688H368.168V37.5016H395.925V32.2688Z" fill="#E6E6E6"/>
<path d="M554.14 34.885H458.378V155.239H554.14V34.885Z" fill="#3F3D56"/>
<path d="M524.44 116.516C525.13 116.516 525.69 115.813 525.69 114.946C525.69 114.079 525.13 113.376 524.44 113.376C523.751 113.376 523.191 114.079 523.191 114.946C523.191 115.813 523.751 116.516 524.44 116.516Z" fill="#0072FF"/>
<path d="M519.756 111.022C520.446 111.022 521.005 110.319 521.005 109.452C521.005 108.585 520.446 107.882 519.756 107.882C519.066 107.882 518.507 108.585 518.507 109.452C518.507 110.319 519.066 111.022 519.756 111.022Z" fill="#0072FF"/>
<path d="M519.132 114.946C518.672 114.946 518.221 115.107 517.83 115.41C517.485 114.758 517.08 114.161 516.623 113.63C516.629 113.546 516.633 113.462 516.633 113.376C516.634 112.76 516.49 112.158 516.22 111.644C515.949 111.13 515.565 110.728 515.113 110.487C514.662 110.246 514.165 110.177 513.683 110.289C513.201 110.401 512.756 110.689 512.403 111.117C511.734 110.998 511.056 110.99 510.385 111.095C510.386 111.07 510.388 111.046 510.388 111.022C510.389 110.496 510.284 109.979 510.084 109.517C509.884 109.056 509.596 108.665 509.244 108.38C508.893 108.095 508.49 107.925 508.073 107.887C507.656 107.848 507.238 107.942 506.857 108.159C506.477 108.376 506.145 108.71 505.894 109.13C505.642 109.55 505.479 110.042 505.418 110.562C505.358 111.082 505.402 111.613 505.547 112.106C505.691 112.599 505.932 113.038 506.248 113.384C505.829 113.834 505.45 114.338 505.116 114.888C504.807 114.566 504.442 114.341 504.05 114.234C503.658 114.127 503.251 114.139 502.864 114.271C502.477 114.403 502.121 114.651 501.826 114.992C501.531 115.334 501.305 115.76 501.169 116.234C501.032 116.708 500.989 117.216 501.042 117.716C501.095 118.216 501.243 118.692 501.473 119.105C501.704 119.517 502.01 119.854 502.366 120.087C502.722 120.319 503.117 120.441 503.518 120.441L503.526 120.44C503.522 120.571 503.518 120.701 503.518 120.833C503.518 121.623 503.594 122.41 503.744 123.177C503.002 123.528 502.342 124.111 501.828 124.87C501.314 125.629 500.961 126.54 500.804 127.517C500.647 128.494 500.689 129.506 500.928 130.456C501.167 131.407 501.594 132.266 502.169 132.952C502.745 133.639 503.449 134.13 504.217 134.381C504.985 134.631 505.791 134.632 506.559 134.384C507.327 134.135 508.033 133.646 508.609 132.961C509.186 132.276 509.614 131.419 509.855 130.468C511.593 130.888 513.392 130.553 514.958 129.517C515.118 129.99 515.368 130.407 515.686 130.73C516.004 131.053 516.38 131.274 516.781 131.372C517.183 131.47 517.597 131.443 517.988 131.292C518.379 131.142 518.735 130.873 519.024 130.51C519.313 130.146 519.527 129.699 519.647 129.208C519.766 128.716 519.788 128.195 519.71 127.691C519.632 127.186 519.457 126.713 519.2 126.314C518.942 125.914 518.611 125.6 518.234 125.399C518.775 124.109 519.079 122.683 519.124 121.225L519.132 121.226C519.794 121.226 520.429 120.895 520.898 120.306C521.366 119.717 521.63 118.919 521.63 118.086C521.63 117.253 521.366 116.455 520.898 115.866C520.429 115.277 519.794 114.946 519.132 114.946V114.946Z" fill="#0072FF"/>
<path d="M534.239 86.7258C534.929 86.7258 535.488 86.023 535.488 85.156C535.488 84.289 534.929 83.5862 534.239 83.5862C533.549 83.5862 532.99 84.289 532.99 85.156C532.99 86.023 533.549 86.7258 534.239 86.7258Z" fill="#0072FF"/>
<path d="M537.178 79.5701C537.868 79.5701 538.427 78.8672 538.427 78.0002C538.427 77.1333 537.868 76.4304 537.178 76.4304C536.488 76.4304 535.929 77.1333 535.929 78.0002C535.929 78.8672 536.488 79.5701 537.178 79.5701Z" fill="#0072FF"/>
<path d="M532.8 78.7339C532.676 78.178 532.431 77.6764 532.093 77.2851C532.498 76.6915 532.846 76.0395 533.129 75.3426C533.194 75.3264 533.26 75.3095 533.325 75.2863C533.797 75.1197 534.22 74.7823 534.54 74.316C534.86 73.8497 535.064 73.2752 535.127 72.6642C535.189 72.0531 535.107 71.4326 534.89 70.8799C534.674 70.3273 534.332 69.8669 533.909 69.5563C533.819 68.7147 533.641 67.8918 533.379 67.109C533.398 67.1029 533.417 67.0994 533.436 67.0927C533.839 66.9509 534.206 66.6843 534.506 66.3174C534.805 65.9506 535.027 65.4951 535.149 64.9928C535.272 64.4905 535.293 63.9575 535.21 63.4426C535.126 62.9276 534.941 62.4473 534.672 62.0455C534.402 61.6438 534.057 61.3335 533.667 61.1431C533.277 60.9528 532.855 60.8884 532.441 60.9559C532.026 61.0234 531.632 61.2207 531.293 61.5296C530.955 61.8385 530.684 62.2492 530.505 62.724C530.047 62.3402 529.557 62.0179 529.046 61.7627C529.209 61.3023 529.282 60.7991 529.258 60.2959C529.234 59.7926 529.114 59.304 528.908 58.8715C528.702 58.4389 528.416 58.075 528.074 57.8107C527.732 57.5463 527.345 57.3892 526.945 57.3527C526.545 57.3162 526.144 57.4014 525.775 57.6009C525.407 57.8005 525.082 58.1086 524.829 58.4993C524.575 58.8899 524.4 59.3516 524.319 59.8452C524.237 60.3388 524.251 60.8499 524.36 61.3352L524.362 61.3446C524.261 61.375 524.16 61.4058 524.059 61.4416C523.454 61.6558 522.872 61.9609 522.325 62.3503C521.855 61.5473 521.23 60.9076 520.51 60.4913C519.789 60.0749 518.996 59.8956 518.205 59.97C517.414 60.0444 516.65 60.3703 515.987 60.9169C515.324 61.4635 514.782 62.213 514.412 63.095C514.042 63.9771 513.857 64.9627 513.873 65.9594C513.889 66.9562 514.107 67.9314 514.505 68.7935C514.904 69.6556 515.47 70.3763 516.151 70.8881C516.832 71.3998 517.605 71.6858 518.398 71.7191C518.547 73.9351 519.292 76.0212 520.51 77.6348C520.191 77.9564 519.939 78.3716 519.778 78.8438C519.616 79.316 519.549 79.8309 519.583 80.3431C519.617 80.8554 519.75 81.3494 519.971 81.7818C520.193 82.2142 520.495 82.5717 520.851 82.823C521.208 83.0744 521.609 83.2118 522.017 83.2232C522.426 83.2346 522.831 83.1197 523.197 82.8886C523.562 82.6575 523.876 82.3172 524.113 81.8976C524.349 81.478 524.499 80.9919 524.551 80.4821C525.686 80.7868 526.861 80.7677 527.989 80.4264L527.991 80.436C528.08 80.8332 528.23 81.2045 528.433 81.5286C528.636 81.8528 528.888 82.1236 529.174 82.3254C529.46 82.5272 529.775 82.6562 530.101 82.7049C530.427 82.7536 530.757 82.7211 531.073 82.6093C531.389 82.4975 531.685 82.3085 531.942 82.0532C532.2 81.7979 532.415 81.4812 532.576 81.1213C532.736 80.7614 532.839 80.3653 532.877 79.9557C532.916 79.546 532.89 79.1309 532.8 78.7339V78.7339Z" fill="#0072FF"/>
<path d="M485.861 65.3933C486.551 65.3933 487.11 64.6905 487.11 63.8235C487.11 62.9565 486.551 62.2537 485.861 62.2537C485.172 62.2537 484.612 62.9565 484.612 63.8235C484.612 64.6905 485.172 65.3933 485.861 65.3933Z" fill="#0072FF"/>
<path d="M479.475 66.0364C480.164 66.0364 480.724 65.3335 480.724 64.4666C480.724 63.5996 480.164 62.8967 479.475 62.8967C478.785 62.8967 478.226 63.5996 478.226 64.4666C478.226 65.3335 478.785 66.0364 479.475 66.0364Z" fill="#0072FF"/>
<path d="M482.283 68.7509C481.973 69.1776 481.763 69.704 481.677 70.2714C481.062 70.1521 480.438 70.1252 479.818 70.1914C479.772 70.1299 479.726 70.0689 479.676 70.0112C479.314 69.5955 478.863 69.3229 478.379 69.2273C477.895 69.1317 477.399 69.2174 476.953 69.4737C476.507 69.7299 476.131 70.1454 475.872 70.6684C475.613 71.1913 475.482 71.7985 475.496 72.4143C474.975 72.9548 474.513 73.5796 474.122 74.2725C474.108 74.2555 474.096 74.237 474.081 74.2203C473.773 73.8655 473.398 73.6137 472.992 73.488C472.586 73.3622 472.162 73.3665 471.758 73.5006C471.353 73.6346 470.982 73.894 470.678 74.2551C470.374 74.6161 470.148 75.0673 470.019 75.5671C469.889 76.067 469.862 76.5995 469.939 77.116C470.017 77.6325 470.196 78.1164 470.46 78.5233C470.725 78.9302 471.067 79.2471 471.454 79.445C471.841 79.6429 472.262 79.7154 472.678 79.6559C472.66 80.3476 472.701 81.0397 472.799 81.7208C472.401 81.7895 472.023 81.9776 471.695 82.269C471.368 82.5604 471.101 82.9466 470.918 83.3949C470.734 83.8433 470.64 84.3406 470.641 84.8447C470.643 85.3489 470.741 85.8451 470.928 86.2914C471.115 86.7377 471.384 87.1209 471.714 87.4086C472.043 87.6964 472.423 87.8802 472.82 87.9446C473.218 88.0089 473.623 87.9519 473.999 87.7783C474.376 87.6047 474.714 87.3197 474.984 86.9473L474.989 86.9397C475.063 87.0315 475.137 87.1231 475.215 87.2119C475.679 87.7445 476.193 88.2047 476.745 88.5827C476.45 89.5086 476.348 90.5132 476.447 91.5023C476.547 92.4914 476.844 93.4326 477.312 94.2375C477.781 95.0425 478.404 95.6847 479.123 96.1041C479.843 96.5234 480.636 96.7061 481.427 96.6349C482.218 96.5638 482.982 96.2411 483.647 95.6972C484.312 95.1534 484.856 94.4061 485.228 93.5256C485.6 92.6451 485.788 91.6603 485.774 90.6635C485.76 89.6666 485.545 88.6906 485.149 87.8268C486.567 86.4969 487.584 84.6004 488.031 82.4487C488.417 82.6192 488.83 82.6682 489.234 82.5912C489.639 82.5142 490.022 82.3136 490.35 82.0071C490.678 81.7005 490.942 81.2974 491.117 80.833C491.292 80.3687 491.374 79.8573 491.356 79.3439C491.337 78.8304 491.218 78.3305 491.01 77.8881C490.802 77.4457 490.511 77.0743 490.162 76.8065C489.813 76.5387 489.416 76.3827 489.008 76.3521C488.6 76.3216 488.192 76.4175 487.82 76.6314C487.427 75.2593 486.793 74.0155 485.967 72.9916L485.972 72.9847C486.194 72.6803 486.366 72.3239 486.478 71.936C486.59 71.5481 486.64 71.1363 486.626 70.724C486.611 70.3117 486.532 69.9072 486.392 69.5334C486.253 69.1597 486.057 68.824 485.814 68.5458C485.572 68.2676 485.288 68.0521 484.979 67.9118C484.67 67.7716 484.343 67.7091 484.015 67.7282C483.687 67.7473 483.365 67.8474 483.068 68.0229C482.77 68.1984 482.504 68.4458 482.283 68.7509Z" fill="#0072FF"/>
<path d="M518.056 32.2688H490.299V37.5016H518.056V32.2688Z" fill="#E6E6E6"/>
<path d="M17.471 444.997C27.4772 461.838 48.2481 463.611 48.2481 463.611C48.2481 463.611 52.7958 438.078 42.7896 421.236C32.7834 404.395 12.0125 402.622 12.0125 402.622C12.0125 402.622 7.46485 428.155 17.471 444.997Z" fill="#E6E6E6"/>
<path d="M68.4443 451.328C61.8415 462.442 48.1355 463.611 48.1355 463.611C48.1355 463.611 45.1346 446.763 51.7374 435.65C58.3402 424.536 72.0462 423.366 72.0462 423.366C72.0462 423.366 75.0471 440.215 68.4443 451.328Z" fill="#E6E6E6"/>
<path d="M360.534 502.046H0V504H360.534V502.046Z" fill="#3F3D56"/>
</svg>
