<svg width="604" height="473" viewBox="0 0 604 473" fill="none" xmlns="http://www.w3.org/2000/svg">
<g clip-path="url(#clip0_15_11657)">
<path d="M601.911 458.481C600.856 463.155 598.888 467.574 596.12 471.486C595.787 472.001 595.431 472.5 595.068 473H526.99C526.792 472.5 526.603 471.993 526.429 471.486C524.02 464.64 522.731 457.449 522.614 450.192C522.515 444.189 524.03 437.232 529.412 434.567C530.951 433.804 532.671 433.48 534.382 433.631C536.093 433.782 537.73 434.403 539.111 435.424C540.493 436.445 541.565 437.828 542.212 439.42C542.858 441.012 543.052 442.751 542.773 444.446C544.766 438.606 547.35 432.985 550.487 427.671C553.144 423.174 556.877 418.496 562.085 418.072C568.126 417.573 573.168 423.439 574.031 429.442C574.712 434.234 573.455 439.011 571.828 443.636C572.867 441.555 574.355 439.73 576.184 438.293C578.013 436.855 580.138 435.841 582.406 435.322C584.673 434.804 587.028 434.795 589.3 435.295C591.572 435.795 593.705 436.793 595.545 438.216C601.449 442.781 603.395 451.168 601.911 458.481Z" fill="#F2F2F2"/>
<path d="M83.5288 257.476C83.3681 257.476 83.2115 257.425 83.0819 257.33C62.6201 242.333 45.6448 239.481 35.0101 239.735C23.4998 240.007 16.7239 243.867 16.6568 243.905C16.4834 244.004 16.278 244.031 16.0852 243.979C15.8924 243.927 15.7278 243.802 15.6274 243.629C15.5269 243.457 15.4985 243.252 15.5486 243.058C15.5986 242.865 15.723 242.699 15.8946 242.597C16.1793 242.431 23.0031 238.527 34.8697 238.225C45.7625 237.94 63.1229 240.824 83.977 256.108C84.1058 256.203 84.2015 256.335 84.2503 256.487C84.2991 256.639 84.2987 256.803 84.249 256.955C84.1992 257.106 84.1028 257.239 83.9735 257.332C83.8442 257.426 83.6885 257.476 83.5288 257.476L83.5288 257.476Z" fill="#CCCCCC"/>
<path d="M185.239 342.123C185.191 342.123 185.144 342.118 185.098 342.11C162.241 337.823 141.241 322.721 120.898 295.942C114.366 287.256 107.216 279.053 99.5032 271.396C99.4323 271.326 99.3757 271.243 99.3368 271.152C99.2979 271.06 99.2774 270.962 99.2764 270.863C99.2754 270.763 99.2941 270.665 99.3312 270.572C99.3684 270.48 99.4234 270.396 99.493 270.325C99.5626 270.254 99.6455 270.198 99.737 270.159C99.8285 270.12 99.9267 270.099 100.026 270.098C100.126 270.097 100.224 270.116 100.316 270.153C100.409 270.19 100.493 270.245 100.564 270.315C108.328 278.023 115.527 286.282 122.104 295.026C142.209 321.493 162.906 336.407 185.377 340.621C185.563 340.656 185.728 340.759 185.842 340.909C185.956 341.06 186.009 341.247 185.992 341.435C185.974 341.623 185.887 341.798 185.748 341.925C185.609 342.052 185.427 342.122 185.239 342.123Z" fill="#CCCCCC"/>
<path d="M207.048 343.09C206.853 343.089 206.666 343.014 206.526 342.879C206.385 342.744 206.302 342.56 206.294 342.365C206.285 342.171 206.352 341.98 206.481 341.834C206.609 341.687 206.789 341.596 206.983 341.579C238.106 338.855 271.278 319.793 309.687 297.721L313.406 295.584C337.279 281.875 359.644 278.067 379.879 284.262C411.087 293.817 426.351 324.367 426.501 324.674C426.589 324.854 426.603 325.062 426.537 325.252C426.472 325.442 426.335 325.598 426.154 325.687C425.974 325.775 425.766 325.788 425.576 325.723C425.386 325.658 425.23 325.52 425.141 325.34C424.993 325.038 409.998 295.059 379.421 285.705C359.606 279.643 337.649 283.409 314.16 296.897L310.442 299.033C271.877 321.195 238.571 340.335 207.115 343.087C207.093 343.089 207.07 343.09 207.048 343.09Z" fill="#CCCCCC"/>
<path d="M506.33 218.74C506.33 232.118 493.96 230.095 478.699 230.095C463.439 230.095 451.068 232.118 451.068 218.74C451.068 205.361 457.111 181.647 478.699 181.647C501.031 181.647 506.33 205.361 506.33 218.74Z" fill="#2F2E41"/>
<path d="M419.804 463.126L410.971 460.279L417.75 424.853L430.787 429.056L419.804 463.126Z" fill="#FFB8B8"/>
<path d="M419.297 472.414L390.814 463.234L390.931 462.873C391.4 461.417 392.151 460.068 393.142 458.903C394.132 457.737 395.343 456.778 396.704 456.081C398.065 455.383 399.551 454.961 401.075 454.837C402.6 454.713 404.134 454.891 405.59 455.36L405.59 455.361L422.986 460.968L419.297 472.414Z" fill="#2F2E41"/>
<path d="M528.234 463.418L518.953 463.417L514.537 427.621H528.235L528.234 463.418Z" fill="#FFB8B8"/>
<path d="M530.601 472.414L500.676 472.413V472.035C500.676 470.505 500.977 468.99 501.562 467.577C502.148 466.164 503.006 464.88 504.087 463.799C505.169 462.717 506.453 461.859 507.866 461.274C509.279 460.688 510.794 460.387 512.324 460.387H512.324L530.602 460.388L530.601 472.414Z" fill="#2F2E41"/>
<path d="M533.596 328.511C532.191 328.509 530.807 328.16 529.569 327.496C528.33 326.832 527.274 325.873 526.494 324.704C525.715 323.535 525.235 322.192 525.098 320.793C524.962 319.394 525.172 317.984 525.71 316.685L494.535 245.846C494.223 244.995 494.084 244.092 494.124 243.188C494.164 242.284 494.383 241.396 494.768 240.577C495.152 239.758 495.696 239.023 496.366 238.415C497.037 237.807 497.821 237.337 498.674 237.034C499.527 236.731 500.431 236.6 501.335 236.648C502.239 236.696 503.125 236.923 503.94 237.315C504.756 237.708 505.486 238.258 506.088 238.934C506.69 239.61 507.152 240.398 507.447 241.254L537.721 312.453C538.093 312.652 538.449 312.88 538.786 313.133C539.705 313.83 540.474 314.706 541.046 315.708C541.618 316.709 541.982 317.816 542.115 318.962C542.249 320.108 542.149 321.268 541.823 322.375C541.496 323.481 540.95 324.51 540.216 325.4C539.41 326.375 538.399 327.159 537.254 327.697C536.11 328.235 534.861 328.513 533.596 328.511Z" fill="#FFB8B8"/>
<path d="M423.803 333.809C422.539 333.812 421.289 333.534 420.145 332.996C419 332.458 417.989 331.674 417.184 330.699C416.45 329.809 415.903 328.78 415.576 327.674C415.25 326.567 415.151 325.407 415.284 324.261C415.418 323.115 415.781 322.008 416.353 321.007C416.925 320.005 417.694 319.129 418.613 318.432C418.95 318.179 419.306 317.951 419.678 317.752L449.962 246.529C450.259 245.676 450.723 244.891 451.325 244.218C451.928 243.546 452.657 242.998 453.472 242.609C454.286 242.219 455.17 241.994 456.072 241.946C456.973 241.899 457.876 242.031 458.727 242.333C459.577 242.636 460.36 243.104 461.029 243.71C461.699 244.316 462.242 245.048 462.627 245.865C463.013 246.681 463.233 247.566 463.275 248.468C463.318 249.37 463.181 250.272 462.874 251.121L431.689 321.984C432.228 323.282 432.438 324.693 432.301 326.092C432.164 327.491 431.684 328.834 430.905 330.003C430.125 331.172 429.069 332.131 427.831 332.795C426.592 333.459 425.209 333.807 423.803 333.809Z" fill="#FFB8B8"/>
<path d="M478.607 230.072C488.875 230.072 497.2 221.748 497.2 211.48C497.2 201.211 488.875 192.887 478.607 192.887C468.338 192.887 460.014 201.211 460.014 211.48C460.014 221.748 468.338 230.072 478.607 230.072Z" fill="#FFB8B8"/>
<path d="M465.372 302.429L465.218 302.307C455.077 294.301 451.28 267.43 449.92 252.125C449.627 248.976 450.571 245.837 452.552 243.373C454.533 240.908 457.396 239.312 460.534 238.922L494.799 234.584C496.604 234.356 498.437 234.534 500.164 235.106C501.891 235.678 503.468 236.629 504.78 237.889C506.092 239.149 507.105 240.687 507.746 242.39C508.386 244.093 508.637 245.917 508.481 247.73L504.793 290.564L465.372 302.429Z" fill="#0072FF"/>
<path d="M514.423 441.778C513.637 441.779 512.875 441.507 512.267 441.009C511.659 440.51 511.243 439.815 511.091 439.044L492.525 346.926C492.484 346.723 492.388 346.535 492.248 346.383C492.108 346.23 491.929 346.119 491.73 346.061C491.531 346.003 491.32 346 491.12 346.054C490.92 346.107 490.738 346.214 490.595 346.363L452.529 387.378L433.796 434.017C433.507 434.791 432.946 435.434 432.218 435.826C431.49 436.217 430.644 436.331 429.838 436.146L415.858 432.92C415.407 432.816 414.983 432.622 414.611 432.349C414.238 432.076 413.925 431.73 413.69 431.332C413.455 430.935 413.304 430.493 413.245 430.035C413.186 429.577 413.221 429.112 413.347 428.668L425.341 386.537C426.606 382.087 428.616 377.883 431.285 374.105L463.566 328.374L465.088 301.735L504.852 287.971L505 288.053C532.339 303.181 532.202 358.008 532.057 416.053C532.04 422.828 532.023 429.834 532.054 436.674C532.059 437.517 531.751 438.332 531.189 438.96C530.627 439.588 529.852 439.984 529.013 440.072L514.798 441.757C514.674 441.771 514.549 441.778 514.423 441.778Z" fill="#2F2E41"/>
<path d="M457.125 209.656H464.479L467.723 200.572L468.372 209.656H471.887L473.779 204.357L474.158 209.656H500.275C500.275 204.436 498.201 199.43 494.51 195.739C490.819 192.047 485.813 189.974 480.592 189.974H476.807C471.587 189.974 466.581 192.047 462.89 195.739C459.199 199.43 457.125 204.436 457.125 209.656Z" fill="#2F2E41"/>
<path d="M604 472.243C604 472.444 603.92 472.636 603.778 472.778C603.636 472.92 603.444 472.999 603.243 473H314.82C314.62 473 314.427 472.92 314.285 472.778C314.143 472.636 314.063 472.444 314.063 472.243C314.063 472.042 314.143 471.85 314.285 471.708C314.427 471.566 314.62 471.486 314.82 471.486H603.243C603.444 471.487 603.636 471.567 603.778 471.709C603.92 471.85 604 472.042 604 472.243Z" fill="#3F3D56"/>
<path d="M196.661 174.038L195.146 174.04L195.31 331.442L196.824 331.441L196.661 174.038Z" fill="#CCCCCC"/>
<path d="M195.894 164.902C197.494 169.2 200.222 174.532 203.109 177.835L195.905 175.238L188.709 177.85C191.588 174.541 194.305 169.203 195.894 164.902Z" fill="#CCCCCC"/>
<path d="M6.81314 254.228C5.46563 254.228 4.14838 253.828 3.02796 253.08C1.90755 252.331 1.0343 251.267 0.518628 250.022C0.00295736 248.777 -0.131973 247.407 0.130914 246.086C0.3938 244.764 1.04269 243.55 1.99552 242.597C2.94836 241.644 4.16235 240.996 5.48397 240.733C6.80559 240.47 8.17548 240.605 9.42042 241.12C10.6654 241.636 11.7294 242.509 12.4781 243.63C13.2267 244.75 13.6263 246.067 13.6263 247.415C13.6242 249.221 12.9057 250.953 11.6285 252.23C10.3512 253.507 8.61947 254.226 6.81314 254.228ZM6.81314 242.116C5.76508 242.116 4.74055 242.427 3.86912 243.009C2.99768 243.591 2.31848 244.419 1.9174 245.387C1.51632 246.355 1.41139 247.421 1.61586 248.449C1.82033 249.476 2.32501 250.421 3.0661 251.162C3.8072 251.903 4.75141 252.408 5.77934 252.612C6.80727 252.816 7.87274 252.712 8.84103 252.31C9.80931 251.909 10.6369 251.23 11.2192 250.359C11.8015 249.487 12.1123 248.463 12.1123 247.415C12.1107 246.01 11.5519 244.663 10.5584 243.67C9.56501 242.676 8.21807 242.117 6.81314 242.116Z" fill="#CCCCCC"/>
<path d="M91.5993 270.125C90.2518 270.125 88.9345 269.725 87.8141 268.977C86.6937 268.228 85.8204 267.164 85.3048 265.919C84.7891 264.674 84.6542 263.304 84.917 261.983C85.1799 260.661 85.8288 259.447 86.7817 258.494C87.7345 257.541 88.9485 256.893 90.2701 256.63C91.5917 256.367 92.9616 256.502 94.2065 257.017C95.4515 257.533 96.5155 258.406 97.2642 259.527C98.0128 260.647 98.4124 261.964 98.4124 263.312C98.4103 265.118 97.6918 266.85 96.4146 268.127C95.1373 269.404 93.4056 270.123 91.5993 270.125ZM91.5993 258.013C90.5512 258.013 89.5267 258.324 88.6552 258.906C87.7838 259.488 87.1046 260.316 86.7035 261.284C86.3024 262.252 86.1975 263.318 86.402 264.346C86.6064 265.373 87.1111 266.318 87.8522 267.059C88.5933 267.8 89.5375 268.304 90.5655 268.509C91.5934 268.713 92.6589 268.608 93.6271 268.207C94.5954 267.806 95.423 267.127 96.0053 266.256C96.5876 265.384 96.8984 264.36 96.8984 263.312C96.8968 261.907 96.338 260.56 95.3446 259.567C94.3511 258.573 93.0042 258.014 91.5993 258.013Z" fill="#CCCCCC"/>
<path d="M196.067 349.609C199.83 349.609 202.88 346.559 202.88 342.796C202.88 339.034 199.83 335.983 196.067 335.983C192.304 335.983 189.254 339.034 189.254 342.796C189.254 346.559 192.304 349.609 196.067 349.609Z" fill="#0072FF"/>
<path d="M253.827 3.52005C253.391 2.48315 252.66 1.59705 251.724 0.971405C250.789 0.345759 249.691 0.00802187 248.566 0H143.549C142.04 0.000802302 140.592 0.600823 139.525 1.66822C138.457 2.73562 137.857 4.18309 137.856 5.69263V138.546C137.857 140.055 138.457 141.503 139.525 142.57C140.592 143.638 142.04 144.238 143.549 144.238H248.57C250.079 144.236 251.526 143.636 252.593 142.569C253.66 141.502 254.261 140.055 254.263 138.546V5.69263C254.265 4.9469 254.119 4.20822 253.831 3.52005H253.827ZM252.995 138.546C252.993 139.72 252.526 140.845 251.696 141.676C250.866 142.506 249.74 142.973 248.566 142.974H143.549C142.375 142.974 141.249 142.507 140.418 141.677C139.588 140.847 139.121 139.721 139.121 138.546V5.69338C139.122 4.51937 139.589 3.39392 140.42 2.56377C141.25 1.73363 142.375 1.26655 143.549 1.26495H248.57C249.454 1.2683 250.318 1.53508 251.05 2.03125C251.782 2.52743 252.35 3.23048 252.681 4.05069C252.745 4.21413 252.801 4.38091 252.847 4.55031C252.948 4.92302 252.998 5.30736 252.998 5.69338L252.995 138.546Z" fill="#3F3D56"/>
<path d="M231.912 31.3662H200.28C199.609 31.3662 198.965 31.0996 198.49 30.625C198.016 30.1504 197.749 29.5067 197.749 28.8356C197.749 28.1644 198.016 27.5207 198.49 27.0461C198.965 26.5716 199.609 26.3049 200.28 26.3049H231.912C232.584 26.3049 233.227 26.5716 233.702 27.0461C234.176 27.5207 234.443 28.1644 234.443 28.8356C234.443 29.5067 234.176 30.1504 233.702 30.625C233.227 31.0996 232.584 31.3662 231.912 31.3662Z" fill="#0072FF"/>
<path d="M231.912 44.6516H200.28C199.609 44.6516 198.965 44.385 198.49 43.9104C198.016 43.4358 197.749 42.7921 197.749 42.121C197.749 41.4498 198.016 40.8061 198.49 40.3315C198.965 39.857 199.609 39.5903 200.28 39.5903H231.912C232.584 39.5903 233.227 39.857 233.702 40.3315C234.176 40.8061 234.443 41.4498 234.443 42.121C234.443 42.7921 234.176 43.4358 233.702 43.9104C233.227 44.385 232.584 44.6516 231.912 44.6516Z" fill="#0072FF"/>
<path d="M184.049 52.2162H160.932C160.177 52.2154 159.454 51.9152 158.92 51.3815C158.386 50.8477 158.086 50.124 158.085 49.3692V22.09C158.086 21.3351 158.386 20.6114 158.92 20.0777C159.454 19.5439 160.177 19.2437 160.932 19.2429H184.049C184.804 19.2437 185.528 19.5439 186.061 20.0777C186.595 20.6114 186.895 21.3351 186.896 22.09V49.3692C186.895 50.124 186.595 50.8477 186.061 51.3815C185.528 51.9152 184.804 52.2154 184.049 52.2162Z" fill="#0072FF"/>
<path d="M231.692 71.855H160.203C159.531 71.855 158.888 71.5884 158.413 71.1138C157.939 70.6392 157.672 69.9955 157.672 69.3243C157.672 68.6532 157.939 68.0095 158.413 67.5349C158.888 67.0603 159.531 66.7937 160.203 66.7937H231.692C232.363 66.7937 233.007 67.0603 233.482 67.5349C233.956 68.0095 234.223 68.6532 234.223 69.3243C234.223 69.9955 233.956 70.6392 233.482 71.1138C233.007 71.5884 232.363 71.855 231.692 71.855Z" fill="#CCCCCC"/>
<path d="M231.692 85.1404H160.203C159.531 85.1404 158.888 84.8738 158.413 84.3992C157.939 83.9246 157.672 83.2809 157.672 82.6097C157.672 81.9386 157.939 81.2949 158.413 80.8203C158.888 80.3457 159.531 80.0791 160.203 80.0791H231.692C232.363 80.0791 233.007 80.3457 233.482 80.8203C233.956 81.2949 234.223 81.9386 234.223 82.6097C234.223 83.2809 233.956 83.9246 233.482 84.3992C233.007 84.8738 232.363 85.1404 231.692 85.1404Z" fill="#CCCCCC"/>
<path d="M231.692 98.4256H160.203C159.531 98.4256 158.888 98.1589 158.413 97.6844C157.939 97.2098 157.672 96.5661 157.672 95.8949C157.672 95.2237 157.939 94.5801 158.413 94.1055C158.888 93.6309 159.531 93.3643 160.203 93.3643H231.692C232.024 93.3643 232.354 93.4297 232.661 93.5569C232.968 93.6841 233.247 93.8705 233.482 94.1055C233.717 94.3405 233.903 94.6194 234.03 94.9265C234.157 95.2335 234.223 95.5626 234.223 95.8949C234.223 96.2272 234.157 96.5563 234.03 96.8633C233.903 97.1704 233.717 97.4494 233.482 97.6844C233.247 97.9193 232.968 98.1058 232.661 98.2329C232.354 98.3601 232.024 98.4256 231.692 98.4256Z" fill="#CCCCCC"/>
<path d="M231.692 111.711H160.203C159.531 111.711 158.888 111.444 158.413 110.97C157.939 110.495 157.672 109.851 157.672 109.18C157.672 108.509 157.939 107.865 158.413 107.391C158.888 106.916 159.531 106.65 160.203 106.65H231.692C232.363 106.65 233.007 106.916 233.482 107.391C233.956 107.865 234.223 108.509 234.223 109.18C234.223 109.851 233.956 110.495 233.482 110.97C233.007 111.444 232.363 111.711 231.692 111.711Z" fill="#CCCCCC"/>
<path d="M231.692 124.996H160.203C159.531 124.996 158.888 124.729 158.413 124.255C157.939 123.78 157.672 123.137 157.672 122.465C157.672 121.794 157.939 121.151 158.413 120.676C158.888 120.201 159.531 119.935 160.203 119.935H231.692C232.363 119.935 233.007 120.201 233.482 120.676C233.956 121.151 234.223 121.794 234.223 122.465C234.223 123.137 233.956 123.78 233.482 124.255C233.007 124.729 232.363 124.996 231.692 124.996Z" fill="#CCCCCC"/>
</g>
<defs>
<clipPath id="clip0_15_11657">
<rect width="604" height="473" fill="white"/>
</clipPath>
</defs>
</svg>
